<?xml version="1.0" encoding="utf-8"?>
<!-- Generator: Adobe Illustrator 16.0.5, SVG Export Plug-In . SVG Version: 6.00 Build 0)  -->
<!DOCTYPE svg PUBLIC "-//W3C//DTD SVG 1.1//EN" "http://www.w3.org/Graphics/SVG/1.1/DTD/svg11.dtd">
<svg version="1.1" id="Layer_1" xmlns="http://www.w3.org/2000/svg" xmlns:xlink="http://www.w3.org/1999/xlink" x="0px" y="0px"
	 width="408px" height="1200px" viewBox="0 0 408 1200" enable-background="new 0 0 408 1200" xml:space="preserve">
<g id="Layer_1_1_">
	<path fill="#FFFFFF" d="M23.805,325.312c0-0.691-0.014-1.252-0.044-1.683c-0.028-0.432-0.158-0.676-0.388-0.732
		c-0.288-0.46-1.121-0.69-2.5-0.69v-2.587l7.675,0.259c1.209,0,2.329-0.014,3.364-0.044c1.036-0.028,2.041-0.099,3.02-0.215v2.587
		c-1.497,0-2.416,0.403-2.76,1.208c-0.174,0.116-0.26,0.748-0.26,1.898v6.381c-0.517,0-1.135,0.058-1.853,0.173
		c-0.721,0.115-1.541,0.229-2.458,0.345c-1.323,0.345-2.328,0.59-3.02,0.733c-0.69,0.144-1.092,0.215-1.208,0.215
		c-0.116,0-0.316,0.043-0.604,0.13c-0.288,0.086-0.689,0.187-1.208,0.302c-0.345,0.115-0.689,0.172-1.035,0.172
		c-0.344,0-0.604,0-0.775,0c-6.786,0-11.157-2.356-13.109-7.071c-0.346-0.978-0.62-2.028-0.819-3.149
		c-0.202-1.122-0.302-2.341-0.302-3.665c0-2.415,0.302-4.572,0.905-6.469c0.604-1.897,1.565-3.393,2.889-4.485
		c1.323-1.148,2.934-2.041,4.831-2.674c1.897-0.631,4.167-0.948,6.813-0.948c2.126,0,5.376,0.49,9.746,1.465v6.9h-3.364
		c-0.116-1.15-0.36-2.142-0.733-2.976c-0.374-0.833-0.905-1.423-1.595-1.769c-0.633-0.459-1.896-0.689-3.795-0.689
		c-2.933,0-4.945,1.208-6.036,3.622c-0.346,0.92-0.648,2.057-0.906,3.406c-0.26,1.354-0.388,2.947-0.388,4.787
		c0,1.438,0.086,2.66,0.258,3.666c0.172,1.007,0.316,1.999,0.432,2.977c0.978,3.221,2.816,4.83,5.519,4.83
		c1.151,0,2.3-0.661,3.451-1.983c0.172-0.23,0.258-1.178,0.258-2.846L23.805,325.312L23.805,325.312z"/>
	<g id="us-nr_9_">
		<path fill="#FFFFFF" d="M36,302v36H2v-36H36 M38,300H0v40h38V300L38,300z"/>
	</g>
	<path fill="#FFFFFF" d="M30.562,274.009H24.3l-2.409-3.854l-7.226-12.885v9.151c0,1.044,0.16,1.729,0.482,2.048
		c0.24,0.241,0.62,0.422,1.143,0.542c0.521,0.121,1.104,0.262,1.746,0.422v4.576H7.077v-4.576c0.642-0.161,1.205-0.302,1.685-0.422
		c0.483-0.119,0.805-0.38,0.965-0.783c0.08-0.078,0.18-0.34,0.303-0.783c0.121-0.44,0.179-1.103,0.179-1.987V254.62
		c0-0.884-0.058-1.545-0.179-1.987c-0.123-0.441-0.223-0.742-0.303-0.903c-0.16-0.561-1.125-0.963-2.89-1.203v-4.458h11.199
		l8.07,13.972l-0.481-5.18c0-0.882-0.042-1.566-0.12-2.047c-0.081-0.482-0.161-0.842-0.243-1.083
		c-0.24-0.482-1.083-0.723-2.527-0.723v-4.939h10.958v4.939c-1.525,0-2.408,0.24-2.648,0.723c-0.323,0.321-0.482,1.366-0.482,3.131
		L30.562,274.009L30.562,274.009z M37.186,270.517c-0.163,0-0.241-0.039-0.241-0.121v-0.122h0.241v-0.12h-0.241
		c-2.329-3.05-3.491-6.503-3.491-10.358c0-4.496,1.162-8.027,3.491-10.598c2.329-2.808,5.46-4.214,9.395-4.214
		c2.486,0,4.617,0.562,6.383,1.685l0.36-0.843h2.169l4.093,10.718l-4.937,2.048c-0.483-1.043-0.944-1.966-1.384-2.769
		c-0.444-0.802-0.985-1.526-1.627-2.169c-1.044-1.284-2.208-1.927-3.492-1.927c-1.044,0-1.867,0.241-2.47,0.723
		c-0.601,0.481-1.144,1.204-1.625,2.167c-0.964,1.607-1.445,3.414-1.445,5.42c0,5.46,1.927,8.188,5.781,8.188
		c2.486,0,4.655-1.926,6.502-5.779l4.94,3.009c-0.405,0.964-0.764,1.808-1.085,2.531c-0.32,0.722-0.765,1.445-1.323,2.167
		c-0.404,0.403-0.785,0.825-1.145,1.265c-0.362,0.442-0.745,0.824-1.145,1.145c-1.125,0.884-2.33,1.565-3.614,2.047
		c-1.284,0.482-2.648,0.722-4.094,0.722c-4.016,0-7.306-1.523-9.875-4.575C37.226,270.758,37.186,270.678,37.186,270.517z
		 M60.672,266.662l2.047-6.623h11.442l-2.289,6.623H60.672z M73.317,268.951c2.006,0,3.251-0.241,3.733-0.724
		c0.562-0.319,0.842-1.162,0.842-2.527v-9.275c0-1.445-0.08-2.167-0.242-2.167c-0.32-0.723-1.043-1.084-2.165-1.084h-2.532v-5.299
		c1.125-0.241,2.469-0.5,4.036-0.783c1.566-0.28,3.151-0.621,4.759-1.024H85.6v20.354c0,1.286,0.441,2.048,1.325,2.289
		c0.402,0.163,1.486,0.241,3.251,0.241v5.058H73.317V268.951z M93.188,270.155c0.241-1.524,0.603-2.951,1.084-4.276
		c0.482-1.324,1.043-2.547,1.688-3.672c0.802-1.364,1.385-2.427,1.745-3.192c0.363-0.761,0.623-1.265,0.785-1.505
		c0.559-0.562,1.082-1.184,1.564-1.867c0.48-0.682,1.123-1.344,1.926-1.987h-2.769c-0.966,0-1.77,0.021-2.409,0.06
		c-0.644,0.042-1.166,0.223-1.565,0.542c-0.243,0.162-0.543,0.442-0.905,0.843c-0.36,0.403-0.742,1.045-1.145,1.928H88.37
		l1.566-10.961h21.317v6.625c-0.962,0.804-1.866,1.728-2.709,2.771c-0.843,1.043-1.628,2.167-2.35,3.372
		c-1.044,1.607-1.848,3.372-2.409,5.299c-0.562,1.928-0.963,3.936-1.203,6.021c-0.162,0.644-0.241,1.285-0.241,1.927
		c0,0.644,0,1.286,0,1.927h-9.636c0-0.723,0.04-1.386,0.122-1.987C92.907,271.42,93.027,270.799,93.188,270.155z"/>
	<g id="us-nr_8_">
		<path fill="#FFFFFF" d="M118,242v36H2v-36H118 M120,240H0v40h120V240L120,240z"/>
	</g>
	<path fill="#FFFFFF" d="M8.271,72.6c0-0.638-0.013-1.155-0.039-1.554c-0.028-0.398-0.173-0.649-0.439-0.756
		c-0.212-0.531-0.956-0.796-2.23-0.796V67.82c1.115,0.106,2.191,0.173,3.227,0.199c1.036,0.028,2.004,0.04,2.908,0.04h3.745
		c0.849-0.106,1.645-0.172,2.389-0.199c0.744-0.026,1.54-0.04,2.39-0.04c2.868,0,5.059,0.597,6.573,1.792
		c1.514,1.195,2.271,2.935,2.271,5.218c0,1.434-0.133,2.642-0.398,3.625c-0.266,0.983-0.665,1.793-1.195,2.43
		c-0.637,0.637-1.474,1.142-2.509,1.513c-1.036,0.372-2.324,0.558-3.864,0.558c-1.063,0.107-1.954,0.159-2.669,0.159
		c-0.716,0-1.289,0-1.714,0v4.381c0,1.328,0.187,2.231,0.559,2.709c0.212,0.107,0.531,0.198,0.956,0.278
		c0.424,0.08,1.009,0.12,1.754,0.12v1.672c-0.426,0-0.892,0-1.395,0c-0.505,0-1.128-0.051-1.873-0.159h-7.49
		c-0.905,0.107-1.66,0.159-2.271,0.159s-1.023,0-1.235,0v-1.672c1.327,0,2.097-0.266,2.311-0.797c0.106-0.107,0.172-0.371,0.2-0.797
		c0.026-0.425,0.039-0.929,0.039-1.514L8.271,72.6L8.271,72.6z M16.715,80.406c1.594,0,2.683-0.398,3.268-1.195
		c0.37-0.424,0.609-0.982,0.716-1.673c0.105-0.689,0.159-1.514,0.159-2.469c0-3.08-0.903-4.621-2.709-4.621
		c-0.106,0-0.266,0.013-0.478,0.039c-0.212,0.028-0.532,0.094-0.957,0.199L16.715,80.406L16.715,80.406z M30.338,83.992
		c-0.107-0.638-0.2-1.275-0.279-1.912c-0.08-0.638-0.119-1.328-0.119-2.072c0-4.672,1.459-7.914,4.381-9.719
		c2.442-1.805,6.24-2.709,11.393-2.709c1.857,0,3.637,0.107,5.337,0.319c1.699,0.213,3.292,0.452,4.78,0.717v5.815h-3.107
		c-0.796-3.026-3.081-4.541-6.851-4.541c-1.435,0-2.629,0.213-3.585,0.637c-0.956,0.426-1.751,1.169-2.389,2.231
		c-0.532,0.85-0.904,1.886-1.117,3.107c-0.212,1.222-0.318,2.603-0.318,4.143l0.159,3.983c0.902,4.409,3,6.613,6.293,6.613
		c1.169,0,2.391-0.77,3.665-2.311c0.105-0.105,0.159-0.331,0.159-0.677c0-0.345,0-0.729,0-1.156v-2.469
		c-0.107-0.318-0.159-0.584-0.159-0.797c0-0.211,0-0.371,0-0.478c-0.107-0.106-0.358-0.199-0.757-0.279
		c-0.399-0.08-0.97-0.12-1.713-0.12v-2.47h7.25c0.53,0.107,1.076,0.16,1.634,0.16c0.557,0,1.128,0,1.713,0c0.53,0,0.996,0,1.394,0
		c0.399,0,0.809-0.052,1.235-0.16v2.47H58.7c-1.008,0-1.672,0.346-1.991,1.035v0.24c-0.106,0.212-0.188,0.346-0.24,0.398h0.24
		c-0.106,0.213-0.173,0.412-0.2,0.598c-0.027,0.187-0.04,0.413-0.04,0.677v5.737c-1.063,0-3.771,0.372-8.125,1.115l-1.592,0.398
		c-0.32,0.107-0.626,0.16-0.918,0.16s-0.545,0-0.757,0C36.686,92.675,31.773,89.781,30.338,83.992z M70.729,81.124v4.859h-9.48
		v-4.859H70.729z M80.928,74.272c-0.637,0.425-1.435,0.836-2.391,1.234c-0.956,0.399-2.178,0.891-3.664,1.474v-2.549
		c3.93-1.274,6.718-2.92,8.365-4.938h5.099V86.46c0,1.276,0.292,2.1,0.877,2.471c0.371,0.426,1.405,0.637,3.107,0.637v2.072H76.545
		v-2.072c0.585-0.052,1.076-0.104,1.475-0.159c0.398-0.052,0.729-0.106,0.995-0.16c0.319-0.053,0.583-0.106,0.797-0.159
		c0.371-0.212,0.65-0.519,0.836-0.916c0.185-0.399,0.279-0.968,0.279-1.714V74.272H80.928z M105.624,83.992
		c-0.265-1.062-0.665-1.844-1.195-2.35c-0.531-0.504-1.329-0.757-2.39-0.757h-2.072v-1.912h1.833c0.583,0,1.062-0.053,1.434-0.16
		c0.371-0.106,0.744-0.372,1.116-0.796c0.264-0.425,0.49-0.917,0.676-1.475c0.187-0.558,0.279-1.261,0.279-2.111
		c0-2.072-0.744-3.106-2.23-3.106c-1.541,0.266-2.31,1.249-2.31,2.948v0.558c0,0.267-0.04,0.452-0.12,0.557
		c-0.08,0.107-0.173,0.213-0.279,0.319c-0.212,0.212-0.426,0.332-0.637,0.358c-0.214,0.027-0.398,0.04-0.557,0.04h-2.71
		c-0.638,0-1.075-0.106-1.314-0.318c-0.239-0.213-0.359-0.531-0.359-0.957c0.161-3.558,3-5.337,8.526-5.337
		c6.584,0,9.877,1.859,9.877,5.576c0,2.603-1.008,4.116-3.026,4.541c0.742,0.425,1.353,0.836,1.831,1.235
		c0.479,0.398,0.824,0.73,1.036,0.997c0.371,0.425,0.558,1.142,0.558,2.15l0.32,1.434c0,2.071-0.825,3.625-2.471,4.661
		s-4.009,1.554-7.089,1.554c-6.375,0-9.562-1.726-9.562-5.179c0-0.955,0.479-1.433,1.435-1.433h3.266
		c0.425,0,0.783,0.133,1.076,0.397c0.292,0.267,0.438,0.612,0.438,1.035l0.478,1.833c0.159,1.009,0.77,1.514,1.833,1.514
		c1.54,0,2.31-1.594,2.31-4.78L105.624,83.992L105.624,83.992z"/>
	<path fill="#FFFFFF" d="M118,62v36H2V62H118 M120,60H0v40h120V60L120,60z"/>
	<path fill="#FFFFFF" d="M22.904,206.658c-0.116-0.057-0.343-0.344-0.688-0.861c-0.287-0.458-0.774-1.119-1.464-1.979
		c-0.688-0.861-1.636-2.123-2.841-3.788v7.662c0,1.205,0.301,2.053,0.904,2.54c0.603,0.488,1.536,0.73,2.798,0.73v1.636H4.395
		v-1.636c0.917,0,1.65-0.043,2.197-0.128c0.544-0.087,0.931-0.33,1.161-0.732c0-0.114,0.044-0.344,0.13-0.688
		c0.085-0.345,0.129-0.918,0.129-1.722v-17.734c0-0.631-0.044-1.163-0.129-1.593c-0.086-0.43-0.188-0.701-0.301-0.818
		c-0.287-0.458-1.349-0.688-3.186-0.688v-1.722h20.06c1.777,0,3.242,0.086,4.391,0.258c1.147,0.171,2.036,0.374,2.667,0.603
		c1.147,0.46,2.053,1.192,2.713,2.196c0.659,1.004,0.99,2.224,0.99,3.659c0,0.977-0.215,1.865-0.646,2.668
		c-0.431,0.805-0.962,1.494-1.592,2.066c-1.666,1.206-3.587,1.808-5.768,1.808l8.006,10.158c0.459,0.575,1.089,1.047,1.894,1.42
		c0.804,0.374,1.923,0.589,3.357,0.646v1.98h-13.69c-0.46-0.861-0.989-1.821-1.592-2.884
		C24.584,208.653,23.822,207.634,22.904,206.658z M17.911,197.705c2.238,0,3.93-0.415,5.079-1.248
		c1.147-0.831,1.722-2.223,1.722-4.175c0-2.869-1.578-4.304-4.734-4.304h-2.066L17.911,197.705L17.911,197.705z"/>
	<g id="us-nr_7_">
		<path fill="#FFFFFF" d="M43,182v36H2v-36H43 M45,180H0v40h45V180L45,180z"/>
	</g>
	<path fill="#FFFFFF" d="M7.858,147.656v-0.863V131.01c0-1.38-0.204-2.271-0.604-2.673c-0.292-0.402-1.095-0.604-2.417-0.604v-1.725
		H8.03h3.278h4.054h5.088c6.208,0,9.314,2.473,9.314,7.418c0,2.932-0.604,5.088-1.811,6.467c-1.035,1.266-3.222,1.984-6.556,2.157
		c-0.919,0.116-1.782,0.173-2.586,0.173c-0.807,0-1.526,0-2.158,0v4.571v0.863L7.858,147.656L7.858,147.656z M16.652,147.656
		c0.176,1.034,0.432,1.695,0.779,1.983c0.112,0.23,0.414,0.375,0.906,0.432c0.487,0.056,1.045,0.086,1.68,0.086v1.725h-6.815H4.924
		v-1.725c0.691,0,1.235-0.044,1.639-0.13c0.399-0.086,0.719-0.271,0.947-0.56c0.116-0.174,0.172-0.39,0.172-0.647
		c0-0.257,0.06-0.647,0.175-1.164H16.652z M16.652,139.376c1.727,0,2.902-0.46,3.538-1.38c0.288-0.459,0.502-1.048,0.646-1.769
		c0.144-0.718,0.218-1.595,0.218-2.63c0-3.219-0.951-4.83-2.846-4.83h-0.691c-0.115,0.116-0.26,0.172-0.432,0.172s-0.316,0-0.432,0
		L16.652,139.376L16.652,139.376z M33.385,147.656c-1.723-2.242-2.586-5.117-2.586-8.626c0-2.415,0.372-4.513,1.12-6.295
		c0.748-1.781,1.898-3.161,3.45-4.139c1.207-1.035,2.832-1.769,4.874-2.2c2.039-0.432,4.412-0.647,7.114-0.647
		c2.126,0,4.084,0.073,5.868,0.216c1.779,0.145,3.418,0.417,4.913,0.819v6.037h-3.361c-0.691-3.219-3.106-4.83-7.244-4.83
		c-2.994,0-5.033,1.065-6.124,3.192c-0.52,0.92-0.951,1.999-1.295,3.234c-0.344,1.237-0.516,2.775-0.516,4.614
		c0,3.854,0.716,6.728,2.155,8.626L33.385,147.656L33.385,147.656z M41.751,147.656c0.976,1.667,2.586,2.5,4.829,2.5
		c1.264,0,2.53-0.777,3.797-2.328v-0.172h8.539v3.018c-1.151,0-3.997,0.344-8.539,1.035c-1.326,0.288-2.288,0.46-2.891,0.516
		c-0.604,0.06-0.85,0.088-0.734,0.088c-6.379,0-10.836-1.553-13.367-4.657H41.751z M50.377,147.656
		c0.172-0.288,0.271-0.691,0.302-1.209c0.028-0.518,0.042-1.177,0.042-1.984c-0.116-0.804-0.172-1.407-0.172-1.81
		c0-0.402-0.06-0.661-0.172-0.776c-0.115-0.114-0.361-0.244-0.733-0.388c-0.375-0.143-0.937-0.216-1.685-0.216v-2.415h7.507h6.38
		v2.415c-1.438,0-2.327,0.375-2.674,1.121c-0.172,0.116-0.256,0.807-0.256,2.069v3.193H50.377z"/>
	<g id="us-nr_6_">
		<path fill="#FFFFFF" d="M65,122v36H2v-36H65 M67,120H0v40h67V120L67,120z"/>
	</g>
	<g id="us-nr_1_">
		<path fill="#FFFFFF" d="M16.156,27.939H11.51l-3.467-10.59l0.495,10.59H4.327V9.049h4.398l3.654,10.59l-0.497-10.59h4.274V27.939z
			 M30.152,21.994c0,2.023-0.434,3.633-1.3,4.83c-0.579,0.579-1.229,0.971-1.95,1.177c-0.724,0.208-1.622,0.31-2.694,0.31
			c-1.075,0-2.013-0.103-2.818-0.31c-0.805-0.206-1.415-0.598-1.827-1.177c-0.413-0.578-0.765-1.259-1.052-2.043
			c-0.29-0.784-0.434-1.712-0.434-2.787v-7.68c0-0.95,0.153-1.755,0.463-2.416c0.31-0.66,0.712-1.238,1.208-1.734
			c0.577-0.454,1.228-0.826,1.951-1.115c0.722-0.289,1.557-0.433,2.508-0.433c1.939,0,3.416,0.464,4.428,1.394
			c1.012,0.929,1.517,2.364,1.517,4.304V21.994z M25.693,22.365V14.5c0-1.65-0.495-2.477-1.486-2.477
			c-1.156,0-1.735,0.827-1.735,2.477v7.866c0,1.693,0.579,2.539,1.735,2.539C25.198,24.904,25.693,24.059,25.693,22.365z
			 M42.973,12.889h-3.531v15.05h-4.459v-15.05h-3.406v-3.84h11.396V12.889z M63.349,27.939h-4.646
			c-0.083-0.165-0.135-0.341-0.155-0.527c-0.021-0.186-0.03-0.381-0.03-0.588c-0.083-0.206-0.135-0.495-0.155-0.867
			c-0.021-0.372-0.031-0.722-0.031-1.053V22.18c-0.33-1.156-0.847-1.734-1.547-1.734h-1.487v7.494h-4.459V9.049h6.379
			c1.981,0,3.384,0.414,4.211,1.239c0.454,0.455,0.774,1.002,0.96,1.641c0.185,0.641,0.278,1.435,0.278,2.385
			c0,2.188-0.743,3.613-2.23,4.273c1.363,0.372,2.045,1.198,2.045,2.477c0.082,0.785,0.144,1.683,0.185,2.694
			c0.041,1.012,0.144,2.096,0.31,3.251c0.247,0.332,0.372,0.538,0.372,0.62V27.939z M58.518,14.809c0-0.578-0.093-1.022-0.278-1.332
			c-0.187-0.31-0.383-0.505-0.588-0.588c-0.208-0.164-0.486-0.289-0.837-0.372c-0.352-0.082-0.856-0.124-1.517-0.124v4.645h1.487
			C57.939,17.039,58.518,16.296,58.518,14.809z M77.53,27.939h-4.458l-0.62-3.654h-3.531l-0.495,3.654h-4.459l4.025-18.89h5.265
			L77.53,27.939z M72.08,20.878l-1.3-8.484l-1.238,8.484H72.08z M89.607,12.889h-3.592v15.05h-4.272v-15.05h-3.531v-3.84h11.396
			L89.607,12.889L89.607,12.889z M101.623,27.939H91.341V9.049h10.095v3.84h-5.759v3.344h5.574v3.84h-5.574v4.026h5.946V27.939z
			 M115.68,22.984c0,1.899-0.64,3.242-1.92,4.025c-0.413,0.332-0.98,0.569-1.702,0.713c-0.723,0.145-1.497,0.217-2.323,0.217h-5.945
			V9.049h4.831c1.197,0,2.199,0.083,3.004,0.248c0.805,0.166,1.435,0.352,1.889,0.558c0.784,0.455,1.341,1.053,1.673,1.796
			c0.33,0.743,0.495,1.693,0.495,2.849v8.484H115.68z M111.221,21.064v-6.069c0-1.073-0.227-1.775-0.682-2.106
			c-0.207-0.164-0.485-0.268-0.835-0.309c-0.352-0.041-0.858-0.103-1.517-0.186v12.077c0.164,0.042,0.319,0.062,0.463,0.062
			c0.145,0,0.28,0,0.403,0c0.949,0,1.507-0.206,1.672-0.619c0.164-0.206,0.289-0.567,0.372-1.083
			C111.18,22.313,111.221,21.725,111.221,21.064z"/>
		<path fill="#FFFFFF" d="M118,2.031L118.031,38h-116L2,2L118,2.031 M120,0H0v40h120V0L120,0z"/>
	</g>
	<g id="non-ca-14-a">
		<polygon fill="#CCCB2F" points="0,360.002 50.587,360.002 25.614,409.95 		"/>
		<g>
			<path d="M22.041,388.391h-2.988V375.02c-0.75,0.512-2.618,0.494-3.295,0.455v-2.972c1.798-0.121,1.926-0.102,2.973-0.975
				c0.64-0.534,0.647-2.28,0.647-2.28h2.663V388.391z"/>
			<path d="M30.416,388.345l-0.039-4.167h-5.822l-0.006-2.536l6.226-12.141h2.471v11.541h1.947l0.008,3.136h-1.9l0.038,4.167H30.416
				L30.416,388.345z M30.324,381.042v-5.645l-2.576,5.645H30.324z"/>
		</g>
		<g>
			<path d="M42.491,371.849h-1.788l-0.81-2.468h-3.134l-0.772,2.468h-1.781l3.269-8.798h1.593L42.491,371.849z M39.355,367.98
				l-1.078-2.476l-1.014,2.476H39.355z"/>
		</g>
	</g>
	<g id="non-ca-a_1_">
		<polygon id="non-ca-a" fill="#E12129" points="14.057,480.007 35.188,480.007 50.229,495.049 50.229,516.306 35.747,530.787 
			14.306,530.787 -0.021,516.459 -0.021,495.669 		"/>
		<g>
			<path fill="#FFFFFF" d="M37.272,518.318H32.02l-2.379-7.248h-9.206l-2.268,7.248h-5.232l9.603-25.844h4.68L37.272,518.318z
				 M28.064,506.956l-3.167-7.271l-2.978,7.271H28.064z"/>
		</g>
	</g>
	<g id="non-ca-r">
		<polygon fill="#E12129" points="14.066,420.045 35.18,420.045 50.208,435.074 50.208,456.312 35.738,470.782 14.314,470.782 
			0,456.467 0,435.694 		"/>
		<g>
			<path fill="#FFFFFF" d="M15.955,457.899v-24.562h10.171c2.559,0,4.604,0.221,5.764,0.663c1.158,0.438,2.086,1.227,2.783,2.351
				c0.695,1.129,1.045,2.414,1.045,3.866c0,1.842-0.406,3.491-1.459,4.69c-1.054,1.203-2.84,1.79-2.84,1.79l-0.005,0.309
				c0,0,0.246,0.035,0.315,0.082c2.054,1.44,3.247,5.839,4.109,8.061l0.969,2.75H32.02l-1.65-5.343
				c-0.697-1.951-0.964-2.449-2.178-3.699c-0.473-0.485-1.809-0.959-3.988-0.899c-0.545,0.016-1.327-0.044-2.439-0.044h-1.548v9.985
				H15.955L15.955,457.899z M20.218,443.737h4.129c2.309,0,4.6-0.079,5.174-0.276c0.574-0.201,1.024-0.549,1.35-1.041
				c0.326-0.49,0.488-1.389,0.488-2.126c0-0.829-0.214-1.495-0.643-2.005c-0.428-0.508-1.032-0.828-1.813-0.966
				c-0.39-0.057-2.409-0.107-4.36-0.107h-4.324v6.521H20.218z"/>
		</g>
	</g>
	<g id="non-ca-pg">
		<path fill="#22245F" d="M50.077,583.641c0,3.867-3.088,6.998-6.897,6.998H6.899c-3.809,0-6.897-3.131-6.897-6.998v-36.609
			c0-3.863,3.088-6.998,6.897-6.998h36.28c3.809,0,6.897,3.135,6.897,6.998L50.077,583.641L50.077,583.641z"/>
		<g>
			<path fill="#FFFFFF" d="M33.357,564.062h8.611v14.173h-3.752l0.019-1.193l-0.426,0.063c0,0-0.368,1.547-4.967,1.522
				c-4.497-0.022-8.575-4.336-8.575-13.141c0-6.854,2.832-13.318,9.12-13.283c5.716,0,8.295,4.998,8.502,9.912h-4.631
				c0-2.436-1.224-4.849-3.62-4.849c-2.073,0-4.626,1.854-4.626,8.285c0,5.158,2.009,8.019,4.66,8.019
				c2.949,0,3.859-2.535,3.859-2.535l-0.007-1.858h-4.167V564.062z"/>
		</g>
		<g>
			<path fill="#FFFFFF" d="M16.988,563.854c2.977,0,3.039-1.457,2.977-3.187c-0.063-1.749-0.16-2.859-2.961-2.804H14.48l0.004,5.988
				h2.504V563.854z M14.48,578.215H9.856V552.76h8.715c3.692,0,5.925,3.158,5.925,8.155c0,2.304-0.957,8.12-6.085,8.12H14.48
				V578.215z"/>
		</g>
	</g>
	<g id="non-ca-g">
		<path fill="#369A46" d="M51.932,625.493c0-14.062-11.402-25.465-25.465-25.465C12.402,600.028,1,611.431,1,625.493
			c0,14.066,11.402,25.469,25.467,25.469C40.53,650.962,51.932,639.561,51.932,625.493z"/>
		<g>
			<path fill="#FFFFFF" d="M26.548,624.238h10.367v13.017h-3.471l-0.044-1.77l-0.562,0.06c0,0-1.467,2.373-7.529,2.35
				c-5.924-0.023-11.299-4.17-11.299-12.646c0-6.594,3.733-12.815,12.018-12.78c7.533,0,10.305,4.81,10.579,8.5h-4.513
				c0-1.303-0.993-4.718-5.733-4.718c-4.649,0-7.854,2.878-7.854,9.063c0,6.595,4.406,8.336,7.899,8.308
				c4.875-0.039,6.277-2.613,6.277-2.613l-0.01-2.938h-6.124L26.548,624.238L26.548,624.238z"/>
		</g>
	</g>
	<g id="non-ca-18-a">
		<polygon fill="#F8991D" points="0,660.013 53.785,660.013 27.232,713.115 		"/>
		<g>
			<path fill="#FFFFFF" d="M23.434,690.195h-3.178V675.98c-0.796,0.541-2.782,0.524-3.502,0.481v-3.157
				c1.912-0.131,2.047-0.11,3.16-1.038c0.682-0.568,0.688-2.423,0.688-2.423h2.832V690.195z"/>
		</g>
		<g>
			<path fill="#FFFFFF" d="M45.175,672.605h-1.9l-0.862-2.623H39.08l-0.82,2.623h-1.893l3.476-9.354h1.693L45.175,672.605z
				 M41.844,668.493l-1.147-2.632l-1.079,2.632H41.844z"/>
		</g>
		<g>
			<path fill="#FFFFFF" d="M37.078,684.405c0,3.664-2.143,6.159-5.297,6.159c-3.153,0-5.296-2.464-5.296-6.102
				c0-2.463,0.925-4.068,2.586-4.969c-1.276-0.69-1.983-2.271-1.983-4.132c0-1.5,0.506-2.915,1.372-3.904
				c0.747-0.841,1.95-1.324,3.371-1.324c2.816,0,4.646,2.017,4.646,5.169c0,1.862-0.688,3.501-1.917,4.191
				C36.221,680.395,37.078,681.97,37.078,684.405z M31.781,687.45c1.324,0,2.239-1.03,2.239-2.833c0-1.374-0.915-3.126-2.239-3.126
				c-1.324,0-2.241,1.782-2.238,3.126C29.546,686.42,30.457,687.45,31.781,687.45z M29.976,675.194c0,0.919,0.722,2.779,1.805,2.779
				c1.084,0,1.833-1.896,1.806-2.779c-0.04-1.352-0.766-2.386-1.849-2.386S29.976,673.844,29.976,675.194z"/>
		</g>
	</g>
	<g id="ca-g">
		
			<image overflow="visible" enable-background="new    " width="225" height="225" xlink:href="2A18D906F54F472E.png"  transform="matrix(0.2315 0 0 0.2315 -0.0142 719.9316)">
		</image>
		<g>
			<path fill="#00623F" d="M28.866,752.454c-9.417-0.017-14.814-4.209-14.809-11.505c0.002-2.917,1.066-5.503,3.074-7.479
				c2.719-2.673,7.094-4.094,12.313-4.007c2.224,0.039,8.178,0.012,8.178,0.012l1.155,1.153c0,0-0.003,5.357-0.004,5.688
				c-2.866-0.419-5.247-0.616-8.133-0.667l0,0c-3.009-0.057-5.064,0.488-6.281,1.682c-0.948,0.936-1.413,2.267-1.414,4.074
				c-0.001,1.941,0.532,3.367,1.582,4.229c1.262,1.03,3.298,1.279,6.062,0.724l0.128-0.027c0,0,0.003-5.269,0.003-5.552
				c0.249,0,6.895-1.156,6.895-1.156l1.155,1.161c0,0-0.007,10.051-0.007,10.288C36.111,751.901,32.159,752.458,28.866,752.454z"/>
			<g>
				<path fill="#00623F" d="M12.567,758.826l-1.59,0.816l-0.823,0.226l2.063,0.821c-0.042,0.287-0.393,0.275-0.754,0.514
					c-0.228,0.152-0.514,0.213-0.762,0.213c-0.426-0.004-0.499,0.13-0.709-0.095c-0.266-0.272-0.438-0.777-0.438-1.405
					c0-0.92,0.402-1.789,1.454-1.789c0.77,0,1.092,0.49,1.289,0.786l1.052-0.632c-0.259-0.34-0.973-1.279-2.441-1.279
					c-1.58,0-2.738,1.185-2.739,2.953c-0.001,1.623,0.949,2.87,2.499,2.87c0.655,0,1.074-0.205,1.349-0.406l0.283,0.284l1.086,0.004
					l0.001-3.061L12.567,758.826z"/>
				<path fill="#00623F" d="M19.316,761.886l1.365-5.508l0.818,0.821l1.201,2.028c0.44,0.774,0.572,1.022,0.834,1.51l-0.061-3.538
					l0.507-0.821l0.82,0.821l-0.004,5.512h-1.359l-0.821-0.821l-0.216-0.92c-0.5-0.816-0.595-0.991-0.973-1.726l0.039,3.467h-1.329
					L19.316,761.886z"/>
				<path fill="#00623F" d="M25.444,761.89l0.825-4.687l3.281-0.817l0.821,0.817l-0.001,1.07h-2.719l-0.001,0.999l1.719-0.817
					l0.817,0.817l-0.001,1.046H27.65l-0.001,1.311l2.142-0.816l0.822,0.82l-0.002,1.086l-4.346-0.004L25.444,761.89z M26.784,755.79
					l1.071-0.479l0.825-0.423l0.821,0.825l-1.14,0.9l-0.756-0.004L26.784,755.79z"/>
				<path fill="#00623F" d="M13.85,761.882l0.828-4.687l3.28-0.817l0.821,0.821l-0.001,1.065h-2.72l-0.001,0.999l1.721-0.816
					l0.818,0.82l-0.001,1.047l-2.539-0.005l-0.001,1.312l2.145-0.817l0.82,0.821v1.086l-4.345-0.004L13.85,761.882z M15.192,755.782
					l1.069-0.479l0.828-0.423l0.817,0.825l-1.138,0.896h-0.755L15.192,755.782z"/>
				<path fill="#00623F" d="M30.908,761.894l0.822-4.687h2.499c0.581,0.008,1.306,0.017,1.817,0.564
					c0.258,0.284,0.438,0.723,0.438,1.225c-0.001,1.109-0.763,1.382-1.139,1.522l1.278,2.203l-1.531-0.004l-0.823-0.821
					l-0.279-1.145l-0.871-0.004l-0.002,1.97h-1.392L30.908,761.894z M33.121,758.237l-0.001,1.493h0.812
					c0.313-0.013,1.17-0.396,1.17-0.76c0.001-0.697-0.51-0.726-0.802-0.729L33.121,758.237z"/>
				<path fill="#00623F" d="M40.658,757.211l2.04,5.512h-1.474l-0.823-0.82l0.546-0.06l-2.042-0.004l-0.276,0.884H37.15
					l-0.821-0.824l3.511-5.509L40.658,757.211z M39.909,758.521c-0.066,0.284-0.146,0.572-0.226,0.854
					c-0.117,0.414-0.333,1.062-0.455,1.473h1.404L39.909,758.521z"/>
				<path fill="#00623F" d="M42.824,761.901l0.827-4.694l0.562-0.821l0.822,0.821l-0.003,4.355l1.348-0.821l0.82,0.825l-0.001,1.159
					h-3.553L42.824,761.901z"/>
			</g>
		</g>
		<g>
			<path fill="#FFFFFF" d="M27.711,751.297c-9.42-0.016-14.818-4.208-14.814-11.504c0.003-2.914,1.066-5.504,3.076-7.479
				c2.719-2.673,7.094-4.095,12.313-4.008c3.018,0.053,6.58,0.498,9.335,1.169c0,0.241-0.003,5.351-0.004,5.683
				c-2.87-0.411-5.248-0.608-8.132-0.664l0,0c-3.012-0.062-5.067,0.49-6.284,1.687c-0.95,0.933-1.413,2.263-1.414,4.07
				c-0.001,1.942,0.531,3.363,1.579,4.229c1.264,1.033,3.3,1.273,6.064,0.722l0.129-0.027c0,0,0.004-5.267,0.004-5.555
				c0.302,0,7.743,0.004,8.051,0.004c0,0.312-0.006,10.052-0.006,10.292C34.952,750.744,31.003,751.297,27.711,751.297z"/>
			<g>
				<path fill="#FFFFFF" d="M11.484,761.368c-0.23,0.21-0.703,0.64-1.637,0.64c-1.549,0-2.497-1.247-2.496-2.874
					c0.001-1.771,1.159-2.949,2.737-2.949c1.469,0,2.185,0.939,2.44,1.275l-1.052,0.632c-0.195-0.3-0.519-0.781-1.289-0.786
					c-1.052,0-1.452,0.869-1.453,1.789c-0.001,0.628,0.172,1.134,0.437,1.405c0.213,0.225,0.591,0.398,1.014,0.398
					c0.253,0,0.535-0.062,0.763-0.209c0.363-0.232,0.409-0.529,0.449-0.821h-1.243l0.001-1.046l2.412,0.004l-0.003,3.056h-1.081
					L11.484,761.368z"/>
				<path fill="#FFFFFF" d="M13.858,756.374l4.101,0.004v1.066h-2.718v1.003h2.537v1.042h-2.537l-0.002,1.313h2.962v1.082
					l-4.347-0.004L13.858,756.374z M15.674,754.882h1.416l-1.14,0.9h-0.755L15.674,754.882z"/>
				<path fill="#FFFFFF" d="M19.32,756.378h1.361l1.199,2.029c0.44,0.777,0.573,1.021,0.831,1.509l-0.061-3.538h1.33l-0.004,5.512
					h-1.36l-1.039-1.741c-0.5-0.816-0.593-0.99-0.972-1.725l0.039,3.462h-1.329L19.32,756.378z"/>
				<path fill="#FFFFFF" d="M25.444,761.89l4.346,0.005l0.001-1.082l-2.961-0.005l0.001-1.311h2.539v-1.042h-2.538v-1.007
					l2.717,0.004l0.001-1.066l-4.102-0.004L25.444,761.89z M26.784,755.79h0.756l1.14-0.9h-1.413L26.784,755.79z"/>
				<path fill="#FFFFFF" d="M30.912,756.386h2.496c0.583,0.014,1.306,0.018,1.818,0.562c0.256,0.296,0.437,0.726,0.437,1.23
					c0,1.105-0.764,1.378-1.138,1.517l1.278,2.203H34.27l-1.099-1.967l-0.871-0.004l-0.001,1.966h-1.392L30.912,756.386z
					 M32.302,757.417v1.492h1.146c0.195-0.004,0.834-0.023,0.834-0.754c0-0.707-0.514-0.73-0.804-0.738H32.302z"/>
				<path fill="#FFFFFF" d="M39.839,756.39l2.038,5.513H40.4l-0.276-0.88l-2.042-0.005l-0.277,0.881h-1.477l2.063-5.509H39.839z
					 M39.091,757.701c-0.072,0.28-0.152,0.572-0.231,0.853c-0.116,0.414-0.332,1.059-0.455,1.474h1.405L39.091,757.701z"/>
				<path fill="#FFFFFF" d="M42.824,761.901l3.555,0.004l0.002-1.164h-2.169l0.002-4.355h-1.386L42.824,761.901z"/>
			</g>
		</g>
	</g>
	<g id="ca-13">
		
			<image overflow="visible" enable-background="new    " width="225" height="225" xlink:href="2A18D906F54F4732.png"  transform="matrix(0.2315 0 0 0.2315 -0.0132 779.9951)">
		</image>
		<path fill="#7F5D00" d="M32.07,791.182c8.9,0.004,12.87,2.045,12.868,6.613c-0.003,1.401-0.87,2.818-2.153,3.537l-0.245,0.139
			l0.254,0.122c1.729,0.833,2.808,2.472,2.807,4.283c-0.003,4.422-4.478,6.566-13.672,6.566c-3.205,0.004-6.859-0.479-9.123-0.965
			c0-0.034-0.788-0.79-0.788-0.79s0.792-4.108,0.792-4.357c0.823,0.075,7.128,0.624,10.202,0.628
			c3.25,0.004,4.518-0.541,4.519-1.919c0.001-0.667-0.398-1.465-2.306-1.465c0,0-5.526-0.004-5.809-0.004
			c0-0.06-1.184-1.185-1.184-1.185s1.187-2.731,1.187-2.914c0.342,0.027,1.088,0.027,2.739,0.027l3.049,0.004
			c1.001,0,2.149-0.161,2.15-1.437c0.001-1.391-1.002-1.77-4.674-1.772c-3.075,0-8.677,0.532-9.495,0.607
			c0-0.056-1.186-1.182-1.186-1.182s1.188-3.344,1.188-3.521C25.505,791.604,29.208,791.178,32.07,791.182z"/>
		<g>
			<g>
				<g>
					<path fill="#7F5D00" d="M15.002,815.498l2.791,7.604h-2.021l-1-1.007l0.623-0.213l-2.795-0.004l-0.377,1.22h-2.024
						l-1.003-1.003l4.808-7.592L15.002,815.498z M13.979,817.31c-0.095,0.388-0.204,0.786-0.313,1.174
						c-0.165,0.567-0.456,1.461-0.626,2.032h1.924L13.979,817.31z"/>
					<path fill="#7F5D00" d="M17.548,822.099l1.006-6.597l0.857-0.999l1.002,0.999l1.647,2.803c0.598,1.066,0.785,1.413,1.138,2.077
						l-0.085-4.876l0.819-0.999l1.003,0.999l-0.005,7.601h-1.866l-0.999-1.003l-0.419-1.395c-0.688-1.133-0.817-1.37-1.332-2.385
						l0.049,4.781h-1.816L17.548,822.099z"/>
					<path fill="#7F5D00" d="M27.422,820.827c0.193,0.218,0.354,0.383,0.729,0.589c0.506,0.276,1.021,0.375,1.464,0.375
						c0.75,0,1.399-0.359,1.399-0.885c0-0.604-0.764-0.702-1.324-0.773c-0.419-0.056-0.837-0.109-1.248-0.197
						c-0.46-0.095-2.043-0.435-2.041-2.068c0-1.958,1.742-2.538,3.053-2.534c1.397,0,2.357,0.438,2.357,0.438l1.003,0.997
						l-1.401,1.003c-0.239-0.235-0.449-0.441-0.75-0.61c-0.269-0.146-0.754-0.34-1.24-0.34c-0.756,0-1.132,0.438-1.132,0.802
						c-0.001,0.58,0.648,0.667,0.967,0.706c0.811,0.099,1.896,0.305,2.325,0.458c0.875,0.324,1.313,0.999,1.312,1.858
						c0,0.554-0.204,1.153-0.603,1.615c-0.691,0.793-1.784,1.022-2.853,1.022c-2.143,0-3.075-1.153-3.547-1.702L27.422,820.827z"/>
					<path fill="#7F5D00" d="M39.973,814.273l-0.865,0.999c0,0,0,2.691,0,3.114c-0.417,0-3.123,0-3.123,0l-1.001,0.86l1,0.999
						c0,0,2.706,0.004,3.123,0.004c-0.001,0.328-1.003,2.112-1.003,2.112l1.001,1.003h1.86c0,0,0-2.7,0.002-3.111
						c0.422,0,3.111,0,3.111,0v-1.863l-1.002-0.999c0,0-1.79,0.999-2.109,0.999c0.001-0.423,0.002-3.114,0.002-3.114L39.973,814.273
						z"/>
				</g>
			</g>
			<path fill="#7F5D00" d="M18.032,790.803l1.187,1.182c0,0-0.014,19.385-0.015,19.677c-0.279,0-6.985-0.004-7.263-0.004
				c0-0.035-1.183-1.186-1.183-1.186l1.192-11.508l-0.182,0.035c-0.021,0.008-2.209,0.45-4.061,0.474
				c0-0.048-1.181-1.185-1.181-1.185s1.183-3.375,1.183-3.553c1.7-0.302,4.564-1.039,5.867-2.752
				C13.658,791.983,18.032,790.803,18.032,790.803z"/>
		</g>
		<path fill="#FFFFFF" d="M14.003,814.503l2.792,7.596l-2.023-0.004l-0.381-1.212H11.6l-0.377,1.212H9.195l2.824-7.592H14.003z
			 M12.979,816.307c-0.092,0.393-0.205,0.79-0.315,1.178c-0.161,0.567-0.454,1.461-0.625,2.028h1.926L12.979,816.307z"/>
		<path fill="#FFFFFF" d="M17.554,814.503h1.857l1.649,2.803c0.599,1.062,0.783,1.409,1.134,2.077l-0.082-4.876h1.82l-0.006,7.597
			h-1.86l-1.417-2.396c-0.689-1.133-0.818-1.374-1.337-2.385l0.052,4.776h-1.816L17.554,814.503z"/>
		<path fill="#FFFFFF" d="M26.42,819.824c0.19,0.218,0.356,0.388,0.731,0.593c0.506,0.272,1.021,0.367,1.464,0.371
			c0.752,0,1.396-0.359,1.398-0.885c0-0.604-0.763-0.702-1.325-0.773c-0.419-0.052-0.836-0.106-1.246-0.197
			c-0.461-0.095-2.045-0.431-2.044-2.064c0.002-1.958,1.743-2.542,3.055-2.542c1.755,0,2.704,0.855,3.357,1.444l-1.397,1.003
			c-0.235-0.236-0.454-0.441-0.75-0.611c-0.271-0.15-0.755-0.34-1.236-0.34c-0.758,0-1.135,0.431-1.135,0.798
			c0,0.584,0.647,0.667,0.965,0.71c0.811,0.1,1.896,0.301,2.328,0.454c0.875,0.323,1.315,1.007,1.314,1.863
			c0,0.55-0.207,1.148-0.604,1.61c-0.691,0.794-1.789,1.022-2.856,1.022c-2.141-0.005-2.988-0.995-3.46-1.544L26.42,819.824z"/>
		<path fill="#FFFFFF" d="M39.723,814.273l-1.614-0.005c0,0-0.002,2.696-0.002,3.123c-0.42,0-3.123-0.004-3.123-0.004l-0.001,1.859
			c0,0,2.703,0,3.123,0c-0.001,0.423-0.002,3.115-0.002,3.115h1.864c0,0,0.002-2.688,0.003-3.111c0.418,0,3.106,0,3.106,0v-1.859
			c0,0-2.687,0-3.106,0c0-0.427,0.002-3.119,0.002-3.119L39.723,814.273L39.723,814.273z"/>
		<path fill="#FFFFFF" d="M30.891,789.993c8.892,0.008,12.863,2.045,12.858,6.612c0,1.405-0.862,2.827-2.146,3.541l-0.25,0.14
			l0.255,0.122c1.732,0.833,2.806,2.476,2.804,4.288c-0.002,4.413-4.474,6.564-13.67,6.562c-3.204,0.004-6.859-0.481-9.12-0.968
			c0-0.229,0.003-4.844,0.003-5.141c0.82,0.07,7.131,0.624,10.201,0.624c3.25,0.004,4.518-0.537,4.52-1.92
			c0-0.666-0.399-1.46-2.308-1.46c0,0-5.527-0.004-5.807-0.008c0-0.269,0.002-3.864,0.002-4.095c0.343,0.02,1.088,0.02,2.742,0.02
			l3.046,0.005c1.001,0,2.147-0.157,2.148-1.434c0.001-1.39-1-1.769-4.675-1.771c-3.066-0.004-8.673,0.533-9.494,0.61
			c0-0.3,0.002-4.487,0.003-4.705C24.321,790.42,28.022,789.989,30.891,789.993z"/>
		<path fill="#FFFFFF" d="M18.032,790.803c0,0.284-0.012,19.381-0.012,19.673c-0.28,0-6.983-0.004-7.262-0.004
			c0.001-0.292,0.008-12.691,0.008-12.691l-0.181,0.034c-0.021,0.009-2.209,0.45-4.058,0.475c0-0.284,0.003-4.518,0.003-4.737
			c1.694-0.3,4.558-1.038,5.863-2.752C12.497,790.799,17.753,790.803,18.032,790.803z"/>
	</g>
	<g id="ca-18">
		
			<image overflow="visible" enable-background="new    " width="225" height="225" xlink:href="2A18D906F54F4735.png"  transform="matrix(0.2315 0 0 0.2315 -0.0161 899.999)">
		</image>
		<g>
			<g>
				<g>
					<path fill="#8C1C1E" d="M13.756,934.764l2.791,7.601h-2.021l-0.999-1.003l0.622-0.213l-2.795-0.005l-0.377,1.217H8.956
						l-1.007-1.003l4.811-7.593L13.756,934.764z M12.736,936.572c-0.099,0.387-0.209,0.781-0.318,1.172
						c-0.162,0.563-0.452,1.465-0.622,2.033l1.925,0.004L12.736,936.572z"/>
					<path fill="#8C1C1E" d="M16.305,941.364l1.003-6.602l0.856-0.995l1.001,0.999l1.648,2.804c0.598,1.062,0.786,1.405,1.139,2.077
						l-0.087-4.881l0.821-0.994l1.001,0.999l-0.004,7.596H21.82l-0.999-0.999l-0.418-1.397c-0.687-1.133-0.817-1.364-1.336-2.384
						l0.053,4.78h-1.816L16.305,941.364z"/>
					<path fill="#8C1C1E" d="M26.175,940.09c0.193,0.217,0.357,0.387,0.734,0.592c0.501,0.272,1.019,0.367,1.462,0.367
						c0.749,0,1.396-0.354,1.398-0.88c0-0.604-0.766-0.703-1.327-0.774c-0.417-0.055-0.837-0.109-1.244-0.196
						c-0.464-0.095-2.045-0.432-2.043-2.068c0-1.959,1.745-2.535,3.056-2.535c1.396,0,2.357,0.442,2.357,0.442l0.999,0.999
						l-1.4,0.999c-0.233-0.233-0.452-0.438-0.75-0.608c-0.271-0.153-0.756-0.34-1.24-0.34c-0.752,0-1.127,0.436-1.127,0.798
						c0,0.58,0.642,0.663,0.965,0.711c0.811,0.096,1.891,0.305,2.327,0.454c0.871,0.327,1.309,1.002,1.309,1.863
						c0,0.549-0.205,1.147-0.608,1.614c-0.683,0.794-1.782,1.019-2.85,1.019c-2.14,0-3.076-1.147-3.547-1.701L26.175,940.09z"/>
					<path fill="#8C1C1E" d="M38.728,933.536l-0.861,0.998c0,0-0.002,2.697-0.002,3.119c-0.42,0-3.125-0.004-3.125-0.004l-1,0.86
						l0.999,0.998c0,0,2.703,0.004,3.125,0.004c0,0.332-1.007,2.116-1.007,2.116l1.005,0.999l1.857,0.004c0,0,0.002-2.7,0.002-3.115
						c0.426,0,3.111,0,3.111,0l0.002-1.858l-0.999-1.003c0,0-1.792,0.999-2.112,0.999c0-0.422,0.002-3.114,0.002-3.114
						L38.728,933.536z"/>
				</g>
			</g>
			<path fill="#8C1C1E" d="M16.786,910.061l1.188,1.186c0,0-0.012,19.389-0.012,19.681c-0.28,0-6.988-0.004-7.271-0.004
				c0-0.039-1.184-1.188-1.184-1.188l1.192-11.505l-0.18,0.035c-0.02,0.008-2.209,0.45-4.059,0.475c0-0.056-1.185-1.188-1.185-1.188
				s1.187-3.372,1.187-3.554c1.696-0.296,4.566-1.038,5.867-2.752C12.412,911.245,16.786,910.061,16.786,910.061z"/>
		</g>
		<path fill="#8C1C1E" d="M41.797,920.922l-0.436-0.118l0.417-0.166c1.512-0.604,2.698-2.262,2.698-3.771
			c0.004-3.977-4.173-6.258-11.465-6.262c-7.184-0.009-11.473,2.329-11.475,6.245c0,1.366,0.999,3.15,2.691,3.774l0.442,0.162
			l-0.452,0.122c-2.12,0.553-3.658,2.432-3.66,4.461c-0.002,4.138,4.297,6.337,12.444,6.341c8.137,0.004,12.438-2.184,12.442-6.325
			C45.445,923.357,43.909,921.479,41.797,920.922z M33.007,915.738L33.007,915.738c2.641,0.016,3.865,0.537,3.863,1.646
			c0,1.02-1.224,1.5-3.865,1.517c-2.639-0.021-3.873-0.501-3.873-1.521C29.132,916.268,30.366,915.754,33.007,915.738z
			 M32.999,926.382L32.999,926.382c-3.03-0.008-4.207-0.484-4.207-1.705c0.002-1.146,1.301-1.653,4.209-1.649
			c2.912,0,4.21,0.513,4.21,1.657C37.211,925.9,36.027,926.378,32.999,926.382z"/>
		<g>
			<g>
				<g>
					<path fill="#FFFFFF" d="M12.736,933.765l2.791,7.597h-2.023l-0.375-1.217h-2.797l-0.379,1.213h-2.02l2.821-7.593H12.736z
						 M11.707,935.573c-0.095,0.391-0.201,0.785-0.31,1.172c-0.16,0.569-0.452,1.465-0.626,2.033H12.7L11.707,935.573z"/>
					<path fill="#FFFFFF" d="M16.285,933.769h1.861l1.644,2.796c0.603,1.069,0.786,1.409,1.143,2.08l-0.085-4.871h1.814
						l-0.002,7.596h-1.864l-1.415-2.404c-0.687-1.129-0.821-1.365-1.333-2.376l0.051,4.776h-1.82L16.285,933.769z"/>
					<path fill="#FFFFFF" d="M25.154,939.087c0.195,0.213,0.351,0.387,0.734,0.596c0.501,0.27,1.021,0.367,1.455,0.367
						c0.758,0,1.408-0.358,1.408-0.884c0-0.601-0.766-0.699-1.323-0.778c-0.422-0.055-0.845-0.105-1.251-0.192
						c-0.466-0.1-2.045-0.431-2.041-2.068c0-1.954,1.743-2.535,3.058-2.535c1.753,0,2.698,0.851,3.352,1.445l-1.394,0.995
						c-0.243-0.233-0.452-0.442-0.754-0.608c-0.271-0.153-0.76-0.336-1.242-0.336c-0.754,0-1.127,0.432-1.127,0.798
						c0,0.584,0.642,0.663,0.967,0.707c0.807,0.1,1.895,0.305,2.321,0.454c0.873,0.323,1.312,1.003,1.311,1.859
						c0,0.549-0.203,1.156-0.602,1.613c-0.687,0.799-1.786,1.02-2.851,1.02c-2.142,0-2.992-0.986-3.464-1.535L25.154,939.087z"/>
					<path fill="#FFFFFF" d="M38.459,933.536h-1.615c0,0-0.002,2.692-0.002,3.114c-0.42,0-3.121-0.004-3.121-0.004l-0.002,1.863
						c0,0,2.701,0.004,3.121,0.004c0,0.418-0.002,3.118-0.002,3.118h1.863c0,0,0.002-2.7,0.002-3.118
						c0.417,0,3.109,0.004,3.109,0.004l0.002-1.867c0,0-2.693,0-3.111,0c0-0.418,0.004-3.114,0.004-3.114H38.459L38.459,933.536z"/>
				</g>
			</g>
			<path fill="#FFFFFF" d="M16.786,910.061c0,0.293-0.012,19.39-0.012,19.683c-0.278,0-6.988-0.004-7.266-0.004
				c0-0.293,0.008-12.697,0.008-12.697l-0.174,0.039c-0.02,0.005-2.213,0.45-4.064,0.471c0-0.285,0.006-4.517,0.006-4.737
				c1.7-0.297,4.562-1.038,5.863-2.757C11.249,910.057,16.508,910.061,16.786,910.061z"/>
			<path fill="#FFFFFF" d="M40.615,919.733l-0.438-0.114l0.417-0.166c1.518-0.607,2.705-2.262,2.705-3.771
				c0.002-3.976-4.181-6.262-11.469-6.266c-7.185-0.004-11.477,2.334-11.479,6.25c0,1.366,1.006,3.15,2.694,3.773l0.44,0.162
				l-0.454,0.118c-2.118,0.558-3.656,2.437-3.658,4.465c-0.004,4.143,4.297,6.337,12.446,6.337c8.141,0.009,12.438-2.18,12.44-6.319
				C44.261,922.174,42.729,920.294,40.615,919.733z M31.822,914.554L31.822,914.554c2.643,0.013,3.871,0.533,3.869,1.644
				c0,1.021-1.226,1.508-3.871,1.52c-2.635-0.016-3.871-0.501-3.871-1.522C27.949,915.083,29.185,914.562,31.822,914.554z
				 M31.816,925.197L31.816,925.197c-3.026-0.008-4.21-0.489-4.207-1.705c0-1.142,1.293-1.654,4.208-1.654
				c2.912,0.004,4.207,0.519,4.207,1.658C36.025,924.712,34.845,925.193,31.816,925.197z"/>
		</g>
	</g>
	<g id="ca-16">
		
			<image overflow="visible" enable-background="new    " width="225" height="221" xlink:href="2A18D906F54F4736.png"  transform="matrix(0.2315 0 0 0.2357 -0.0142 840.0508)">
		</image>
		<g>
			<g>
				<g>
					<g>
						<path fill="#003159" d="M13.863,875.423l2.792,7.601h-2.021l-0.999-1.008l0.622-0.213h-2.799l-0.375,1.216l-2.025-0.004
							l-0.999-0.999l4.805-7.596L13.863,875.423z M12.842,877.227c-0.097,0.388-0.203,0.786-0.313,1.178
							c-0.166,0.563-0.456,1.465-0.626,2.028l1.925,0.005L12.842,877.227z"/>
						<path fill="#003159" d="M16.41,882.02l1.006-6.593l0.855-1.003l1.005,1.003l1.646,2.799c0.598,1.062,0.788,1.409,1.137,2.073
							l-0.083-4.868l0.817-1.003l1.005,1.003l-0.006,7.597h-1.864l-1-1.003l-0.421-1.397c-0.687-1.129-0.813-1.362-1.33-2.385
							l0.047,4.785l-1.812-0.004L16.41,882.02z"/>
						<path fill="#003159" d="M26.286,880.744c0.191,0.218,0.353,0.388,0.728,0.593c0.505,0.272,1.021,0.371,1.463,0.371
							c0.754,0,1.399-0.354,1.399-0.877c0-0.607-0.762-0.706-1.324-0.781c-0.42-0.056-0.835-0.109-1.246-0.192
							c-0.462-0.1-2.045-0.432-2.045-2.069c0.006-1.962,1.743-2.542,3.056-2.538c1.399,0,2.357,0.442,2.357,0.442l1,0.998
							l-1.397,1.003c-0.237-0.236-0.45-0.442-0.75-0.611c-0.271-0.15-0.754-0.336-1.238-0.336c-0.758-0.004-1.135,0.435-1.135,0.794
							c0,0.584,0.649,0.671,0.967,0.71c0.81,0.099,1.895,0.309,2.328,0.458c0.869,0.32,1.314,0.999,1.312,1.859
							c0,0.553-0.205,1.148-0.602,1.614c-0.693,0.793-1.787,1.022-2.858,1.02c-2.138,0-3.075-1.149-3.547-1.697L26.286,880.744z"/>
						<path fill="#003159" d="M38.834,874.194l-0.864,0.999c0,0-0.002,2.691-0.002,3.114c-0.417,0-3.123,0-3.123,0l-0.997,0.86
							l0.997,1.003c0,0,2.707,0,3.123,0c-0.002,0.328-1.003,2.112-1.003,2.112l1.001,1.003h1.863c0,0,0.002-2.692,0.004-3.111
							c0.42,0,3.107,0,3.107,0v-1.863l-0.999-0.999c0,0-1.792,0.999-2.108,0.999c0-0.423,0-3.118,0-3.118L38.834,874.194z"/>
					</g>
				</g>
				<path fill="#003159" d="M16.897,850.72l1.181,1.186c0,0-0.01,19.385-0.012,19.677c-0.281,0-6.988-0.004-7.263-0.004
					c0-0.035-1.184-1.186-1.184-1.186l1.192-11.508l-0.182,0.035c-0.02,0.008-2.208,0.454-4.061,0.474
					c0-0.051-1.183-1.188-1.183-1.188s1.185-3.367,1.185-3.549c1.702-0.302,4.562-1.043,5.865-2.756
					C12.519,851.9,16.897,850.72,16.897,850.72z"/>
			</g>
			<g>
				<path fill="#003159" d="M35.378,859.148c-2.073,0-4.637,0.396-6.536,0.999l-0.193,0.066v-0.205c0-2.255,2.149-3.925,6.972-3.921
					c2.467,0,5.57,0.253,7.971,0.641c0-0.309,0.01-4.623,0.01-4.623s-0.997-1.146-1.185-1.182c-2.463-0.501-5.336,0.178-7.562,0.178
					c-8.47-0.004-14.16,4.284-14.164,10.677c-0.006,6.921,4.675,10.589,13.532,10.593c7.801,0.008,11.348-3.526,11.352-6.803
					C45.577,861.494,41.86,859.152,35.378,859.148z M33.404,866.887c-2.773-0.004-4.495-0.288-4.495-1.705
					c0-1.426,1.724-1.71,4.499-1.71c2.683,0.004,4.469,0.296,4.467,1.714C37.875,866.599,36.088,866.887,33.404,866.887z"/>
			</g>
		</g>
		<g>
			<g>
				<path fill="#FFFFFF" d="M12.892,874.424l2.795,7.601l-2.027-0.005l-0.375-1.216h-2.792l-0.385,1.212H8.087l2.827-7.596
					L12.892,874.424z M11.869,876.232c-0.097,0.387-0.203,0.784-0.312,1.172c-0.162,0.567-0.454,1.465-0.624,2.028h1.925
					L11.869,876.232z"/>
				<path fill="#FFFFFF" d="M16.441,874.424l1.864,0.004l1.642,2.799c0.606,1.066,0.788,1.406,1.141,2.073l-0.081-4.872l1.818,0.004
					l-0.008,7.597h-1.855l-1.421-2.4c-0.688-1.133-0.815-1.374-1.334-2.381l0.053,4.777h-1.822L16.441,874.424z"/>
				<path fill="#FFFFFF" d="M25.314,879.746c0.191,0.213,0.349,0.391,0.728,0.596c0.503,0.266,1.022,0.363,1.465,0.363
					c0.752,0,1.401-0.355,1.401-0.881c0-0.601-0.764-0.698-1.326-0.773c-0.417-0.056-0.837-0.109-1.244-0.197
					c-0.464-0.095-2.047-0.431-2.045-2.068c0.002-1.958,1.745-2.53,3.058-2.53c1.755,0,2.698,0.849,3.355,1.441l-1.399,0.998
					c-0.235-0.24-0.452-0.441-0.756-0.615c-0.269-0.15-0.75-0.332-1.238-0.332c-0.75-0.004-1.125,0.427-1.125,0.798
					c-0.002,0.58,0.644,0.663,0.965,0.706c0.804,0.1,1.893,0.309,2.326,0.454c0.871,0.324,1.311,0.999,1.311,1.859
					c0,0.554-0.205,1.156-0.606,1.614c-0.685,0.798-1.787,1.022-2.853,1.022c-2.142,0-2.988-0.991-3.464-1.54L25.314,879.746z"/>
				<path fill="#FFFFFF" d="M38.617,874.19h-1.615c0,0-0.004,2.696-0.004,3.114c-0.415,0-3.121,0-3.121,0l-0.002,1.859
					c0,0,2.707,0.004,3.123,0.004c0,0.423-0.002,3.115-0.002,3.115l1.863,0.004c0,0,0.002-2.696,0.002-3.119
					c0.42,0,3.107,0.004,3.107,0.004l0.002-1.863c0,0-2.688,0-3.109,0c0.002-0.418,0.004-3.118,0.004-3.118H38.617L38.617,874.19z"
					/>
			</g>
		</g>
		<g>
			<path fill="#FFFFFF" d="M16.897,850.72c0,0.292-0.012,19.386-0.014,19.677c-0.284,0-6.986-0.004-7.264-0.004
				c0-0.292,0.008-12.691,0.008-12.691l-0.178,0.035c-0.026,0.008-2.211,0.453-4.063,0.478c0.002-0.288,0.004-4.521,0.006-4.741
				c1.693-0.296,4.561-1.038,5.862-2.756C11.36,850.716,16.615,850.72,16.897,850.72z"/>
			<g>
				<path fill="#FFFFFF" d="M34.193,857.965c-2.071-0.004-4.639,0.396-6.532,0.998l-0.197,0.067v-0.209
					c0.004-2.255,2.15-3.921,6.972-3.917c2.472,0,5.573,0.249,7.973,0.64c0-0.312,0.008-4.394,0.008-4.619
					c-2.463-0.557-6.348-0.998-8.749-1.003c-8.467-0.004-14.158,4.276-14.164,10.668c-0.004,6.925,4.674,10.598,13.534,10.602
					c7.801,0.008,11.354-3.525,11.354-6.808C44.397,860.306,40.678,857.969,34.193,857.965z M32.221,865.702
					c-2.777-0.004-4.499-0.292-4.499-1.705c0-1.429,1.723-1.71,4.499-1.71c2.688,0,4.473,0.297,4.473,1.718
					C36.694,865.414,34.906,865.702,32.221,865.702z"/>
			</g>
		</g>
	</g>
	<path d="M203.805,325.312c0-0.691-0.014-1.252-0.044-1.683c-0.028-0.432-0.158-0.676-0.388-0.732c-0.288-0.46-1.121-0.69-2.5-0.69
		v-2.587l7.675,0.259c1.209,0,2.329-0.014,3.364-0.044c1.035-0.028,2.041-0.099,3.02-0.215v2.587c-1.496,0-2.416,0.403-2.76,1.208
		c-0.174,0.116-0.26,0.748-0.26,1.898v6.381c-0.518,0-1.135,0.058-1.854,0.173c-0.721,0.115-1.541,0.229-2.457,0.345
		c-1.324,0.345-2.328,0.59-3.021,0.733c-0.69,0.144-1.092,0.215-1.208,0.215s-0.316,0.043-0.604,0.13
		c-0.288,0.086-0.689,0.187-1.208,0.302c-0.345,0.115-0.689,0.172-1.035,0.172c-0.344,0-0.604,0-0.775,0
		c-6.786,0-11.157-2.356-13.109-7.071c-0.346-0.978-0.62-2.028-0.819-3.149c-0.202-1.122-0.302-2.341-0.302-3.665
		c0-2.415,0.302-4.572,0.905-6.469c0.604-1.897,1.565-3.393,2.889-4.485c1.323-1.148,2.934-2.041,4.831-2.674
		c1.897-0.631,4.167-0.948,6.813-0.948c2.126,0,5.376,0.49,9.746,1.465v6.9h-3.364c-0.116-1.15-0.36-2.142-0.733-2.976
		c-0.373-0.833-0.904-1.423-1.594-1.769c-0.634-0.459-1.896-0.689-3.795-0.689c-2.933,0-4.945,1.208-6.036,3.622
		c-0.346,0.92-0.648,2.057-0.906,3.406c-0.26,1.354-0.388,2.947-0.388,4.787c0,1.438,0.086,2.66,0.258,3.666
		c0.172,1.007,0.316,1.999,0.432,2.977c0.978,3.221,2.816,4.83,5.519,4.83c1.151,0,2.3-0.661,3.451-1.983
		c0.172-0.23,0.258-1.178,0.258-2.846L203.805,325.312L203.805,325.312z"/>
	<g id="us-nr_10_">
		<path d="M216,302v36h-34v-36H216 M218,300h-38v40h38V300L218,300z"/>
	</g>
	<path d="M210.562,274.009H204.3l-2.409-3.854l-7.226-12.885v9.151c0,1.044,0.16,1.729,0.482,2.048
		c0.24,0.241,0.62,0.422,1.143,0.542c0.521,0.121,1.104,0.262,1.746,0.422v4.576h-10.959v-4.576
		c0.642-0.161,1.205-0.302,1.685-0.422c0.483-0.119,0.805-0.38,0.965-0.783c0.08-0.078,0.18-0.34,0.303-0.783
		c0.121-0.44,0.179-1.103,0.179-1.987V254.62c0-0.884-0.058-1.545-0.179-1.987c-0.123-0.441-0.223-0.742-0.303-0.903
		c-0.16-0.561-1.125-0.963-2.89-1.203v-4.458h11.199l8.069,13.972l-0.48-5.18c0-0.882-0.042-1.566-0.12-2.047
		c-0.081-0.482-0.161-0.842-0.243-1.083c-0.24-0.482-1.083-0.723-2.527-0.723v-4.939h10.958v4.939c-1.525,0-2.408,0.24-2.648,0.723
		c-0.322,0.321-0.482,1.366-0.482,3.131V274.009L210.562,274.009z M217.186,270.517c-0.162,0-0.24-0.039-0.24-0.121v-0.122h0.24
		v-0.12h-0.24c-2.329-3.05-3.491-6.503-3.491-10.358c0-4.496,1.162-8.027,3.491-10.598c2.328-2.808,5.459-4.214,9.395-4.214
		c2.486,0,4.617,0.562,6.383,1.685l0.36-0.843h2.169l4.094,10.718l-4.938,2.048c-0.483-1.043-0.944-1.966-1.385-2.769
		c-0.443-0.802-0.984-1.526-1.627-2.169c-1.043-1.284-2.207-1.927-3.492-1.927c-1.043,0-1.866,0.241-2.469,0.723
		c-0.602,0.481-1.145,1.204-1.625,2.167c-0.965,1.607-1.445,3.414-1.445,5.42c0,5.46,1.927,8.188,5.781,8.188
		c2.485,0,4.654-1.926,6.502-5.779l4.939,3.009c-0.404,0.964-0.764,1.808-1.085,2.531c-0.319,0.722-0.765,1.445-1.323,2.167
		c-0.404,0.403-0.785,0.825-1.145,1.265c-0.362,0.442-0.745,0.824-1.145,1.145c-1.125,0.884-2.33,1.565-3.615,2.047
		c-1.283,0.482-2.647,0.722-4.094,0.722c-4.016,0-7.306-1.523-9.875-4.575C217.227,270.758,217.186,270.678,217.186,270.517z
		 M240.672,266.662l2.047-6.623h11.442l-2.289,6.623H240.672z M253.316,268.951c2.007,0,3.252-0.241,3.733-0.724
		c0.562-0.319,0.843-1.162,0.843-2.527v-9.275c0-1.445-0.08-2.167-0.242-2.167c-0.32-0.723-1.043-1.084-2.166-1.084h-2.531v-5.299
		c1.125-0.241,2.469-0.5,4.036-0.783c1.565-0.28,3.151-0.621,4.759-1.024h3.852v20.354c0,1.286,0.441,2.048,1.325,2.289
		c0.402,0.163,1.486,0.241,3.251,0.241v5.058h-16.859V268.951L253.316,268.951z M273.188,270.155
		c0.242-1.524,0.604-2.951,1.084-4.276c0.482-1.324,1.043-2.547,1.688-3.672c0.802-1.364,1.386-2.427,1.745-3.192
		c0.363-0.761,0.623-1.265,0.785-1.505c0.559-0.562,1.082-1.184,1.564-1.867c0.479-0.682,1.122-1.344,1.926-1.987h-2.77
		c-0.966,0-1.77,0.021-2.409,0.06c-0.644,0.042-1.166,0.223-1.565,0.542c-0.242,0.162-0.543,0.442-0.904,0.843
		c-0.359,0.403-0.742,1.045-1.145,1.928h-4.817l1.565-10.961h21.317v6.625c-0.962,0.804-1.866,1.728-2.709,2.771
		s-1.628,2.167-2.351,3.372c-1.043,1.607-1.848,3.372-2.408,5.299c-0.562,1.928-0.963,3.936-1.203,6.021
		c-0.162,0.644-0.241,1.285-0.241,1.927c0,0.644,0,1.286,0,1.927h-9.636c0-0.723,0.04-1.386,0.122-1.987
		C272.907,271.42,273.027,270.799,273.188,270.155z"/>
	<g id="us-nr_5_">
		<path d="M298,242v36H182v-36H298 M300,240H180v40h120V240L300,240z"/>
	</g>
	<path d="M188.271,72.6c0-0.638-0.013-1.155-0.039-1.554c-0.028-0.398-0.173-0.649-0.439-0.756c-0.212-0.531-0.956-0.796-2.23-0.796
		V67.82c1.115,0.106,2.191,0.173,3.227,0.199c1.036,0.028,2.004,0.04,2.908,0.04h3.745c0.849-0.106,1.645-0.172,2.389-0.199
		c0.744-0.026,1.54-0.04,2.39-0.04c2.868,0,5.059,0.597,6.573,1.792c1.514,1.195,2.271,2.935,2.271,5.218
		c0,1.434-0.133,2.642-0.398,3.625s-0.665,1.793-1.195,2.43c-0.637,0.637-1.474,1.142-2.509,1.513
		c-1.036,0.372-2.324,0.558-3.864,0.558c-1.063,0.107-1.954,0.159-2.669,0.159c-0.716,0-1.289,0-1.714,0v4.381
		c0,1.328,0.187,2.231,0.559,2.709c0.212,0.107,0.531,0.198,0.956,0.278c0.424,0.08,1.009,0.12,1.754,0.12v1.672
		c-0.426,0-0.892,0-1.395,0c-0.505,0-1.128-0.051-1.873-0.159h-7.487c-0.905,0.107-1.66,0.159-2.271,0.159s-1.023,0-1.235,0v-1.672
		c1.327,0,2.097-0.266,2.311-0.797c0.106-0.107,0.172-0.371,0.2-0.797c0.026-0.425,0.039-0.929,0.039-1.514V72.6H188.271z
		 M196.715,80.406c1.594,0,2.683-0.398,3.268-1.195c0.37-0.424,0.609-0.982,0.716-1.673c0.105-0.689,0.159-1.514,0.159-2.469
		c0-3.08-0.903-4.621-2.709-4.621c-0.106,0-0.266,0.013-0.478,0.039c-0.212,0.028-0.532,0.094-0.957,0.199L196.715,80.406
		L196.715,80.406z M210.338,83.992c-0.107-0.638-0.199-1.275-0.279-1.912c-0.08-0.638-0.119-1.328-0.119-2.072
		c0-4.672,1.459-7.914,4.381-9.719c2.443-1.805,6.24-2.709,11.394-2.709c1.856,0,3.638,0.107,5.337,0.319
		c1.699,0.213,3.292,0.452,4.78,0.717v5.815h-3.106c-0.797-3.026-3.082-4.541-6.852-4.541c-1.436,0-2.629,0.213-3.585,0.637
		c-0.956,0.426-1.751,1.169-2.39,2.231c-0.531,0.85-0.903,1.886-1.116,3.107c-0.212,1.222-0.318,2.603-0.318,4.143l0.159,3.983
		c0.902,4.409,3,6.613,6.293,6.613c1.169,0,2.391-0.77,3.665-2.311c0.104-0.105,0.159-0.331,0.159-0.677c0-0.345,0-0.729,0-1.156
		v-2.469c-0.107-0.318-0.159-0.584-0.159-0.797c0-0.211,0-0.371,0-0.478c-0.106-0.106-0.358-0.199-0.757-0.279
		c-0.399-0.08-0.971-0.12-1.713-0.12v-2.47h7.25c0.529,0.107,1.076,0.16,1.634,0.16c0.557,0,1.128,0,1.713,0c0.53,0,0.996,0,1.394,0
		c0.399,0,0.81-0.052,1.235-0.16v2.47H238.7c-1.009,0-1.673,0.346-1.991,1.035v0.24c-0.105,0.212-0.188,0.346-0.24,0.398h0.24
		c-0.105,0.213-0.173,0.412-0.2,0.598c-0.026,0.187-0.04,0.413-0.04,0.677v5.737c-1.062,0-3.771,0.372-8.125,1.115l-1.592,0.398
		c-0.32,0.107-0.626,0.16-0.918,0.16s-0.545,0-0.757,0C216.686,92.675,211.773,89.781,210.338,83.992z M250.729,81.124v4.859h-9.479
		v-4.859H250.729z M260.928,74.272c-0.637,0.425-1.435,0.836-2.391,1.234c-0.956,0.399-2.178,0.891-3.664,1.474v-2.549
		c3.93-1.274,6.718-2.92,8.365-4.938h5.099V86.46c0,1.276,0.292,2.1,0.877,2.471c0.371,0.426,1.405,0.637,3.106,0.637v2.072h-15.775
		v-2.072c0.585-0.052,1.076-0.104,1.475-0.159c0.398-0.052,0.729-0.106,0.996-0.16c0.318-0.053,0.582-0.106,0.797-0.159
		c0.371-0.212,0.649-0.519,0.836-0.916c0.185-0.399,0.278-0.968,0.278-1.714L260.928,74.272L260.928,74.272z M285.624,83.992
		c-0.265-1.062-0.665-1.844-1.194-2.35c-0.531-0.504-1.33-0.757-2.391-0.757h-2.072v-1.912h1.833c0.583,0,1.062-0.053,1.435-0.16
		c0.371-0.106,0.744-0.372,1.115-0.796c0.264-0.425,0.49-0.917,0.676-1.475c0.188-0.558,0.279-1.261,0.279-2.111
		c0-2.072-0.744-3.106-2.229-3.106c-1.541,0.266-2.31,1.249-2.31,2.948v0.558c0,0.267-0.041,0.452-0.121,0.557
		c-0.08,0.107-0.172,0.213-0.278,0.319c-0.212,0.212-0.427,0.332-0.638,0.358c-0.213,0.027-0.397,0.04-0.557,0.04h-2.71
		c-0.638,0-1.075-0.106-1.313-0.318c-0.239-0.213-0.359-0.531-0.359-0.957c0.161-3.558,3-5.337,8.525-5.337
		c6.584,0,9.877,1.859,9.877,5.576c0,2.603-1.008,4.116-3.025,4.541c0.742,0.425,1.354,0.836,1.831,1.235
		c0.479,0.398,0.823,0.73,1.036,0.997c0.371,0.425,0.558,1.142,0.558,2.15l0.32,1.434c0,2.071-0.825,3.625-2.472,4.661
		c-1.646,1.036-4.008,1.554-7.088,1.554c-6.375,0-9.562-1.726-9.562-5.179c0-0.955,0.479-1.433,1.436-1.433h3.266
		c0.425,0,0.783,0.133,1.076,0.397c0.291,0.267,0.438,0.612,0.438,1.035l0.479,1.833c0.158,1.009,0.77,1.514,1.832,1.514
		c1.541,0,2.311-1.594,2.311-4.78L285.624,83.992L285.624,83.992z"/>
	<path d="M298,62v36H182V62H298 M300,60H180v40h120V60L300,60z"/>
	<path d="M202.904,206.658c-0.116-0.057-0.343-0.344-0.688-0.861c-0.287-0.458-0.774-1.119-1.464-1.979
		c-0.688-0.861-1.636-2.123-2.841-3.788v7.662c0,1.205,0.301,2.053,0.904,2.54c0.603,0.488,1.536,0.73,2.798,0.73v1.636h-17.218
		v-1.636c0.917,0,1.65-0.043,2.197-0.128c0.544-0.087,0.931-0.33,1.161-0.732c0-0.114,0.044-0.344,0.13-0.688
		c0.085-0.345,0.129-0.918,0.129-1.722v-17.734c0-0.631-0.044-1.163-0.129-1.593c-0.086-0.43-0.188-0.701-0.301-0.818
		c-0.287-0.458-1.349-0.688-3.186-0.688v-1.722h20.06c1.776,0,3.242,0.086,4.392,0.258c1.146,0.171,2.035,0.374,2.666,0.603
		c1.147,0.46,2.053,1.192,2.713,2.196c0.66,1.004,0.99,2.224,0.99,3.659c0,0.977-0.215,1.865-0.646,2.668
		c-0.43,0.805-0.961,1.494-1.592,2.066c-1.666,1.206-3.586,1.808-5.768,1.808l8.006,10.158c0.459,0.575,1.09,1.047,1.895,1.42
		c0.804,0.374,1.923,0.589,3.356,0.646v1.98h-13.688c-0.459-0.861-0.988-1.821-1.592-2.884
		C204.584,208.653,203.822,207.634,202.904,206.658z M197.911,197.705c2.238,0,3.93-0.415,5.079-1.248
		c1.147-0.831,1.722-2.223,1.722-4.175c0-2.869-1.578-4.304-4.734-4.304h-2.066L197.911,197.705L197.911,197.705z"/>
	<g id="us-nr_4_">
		<path d="M223,182v36h-41v-36H223 M225,180h-45v40h45V180L225,180z"/>
	</g>
	<path d="M187.858,147.656v-0.863V131.01c0-1.38-0.204-2.271-0.604-2.673c-0.292-0.402-1.095-0.604-2.417-0.604v-1.725h3.193h3.278
		h4.054h5.088c6.208,0,9.313,2.473,9.313,7.418c0,2.932-0.604,5.088-1.811,6.467c-1.035,1.266-3.223,1.984-6.556,2.157
		c-0.919,0.116-1.782,0.173-2.586,0.173c-0.807,0-1.526,0-2.158,0v4.571v0.863L187.858,147.656L187.858,147.656z M196.652,147.656
		c0.176,1.034,0.432,1.695,0.779,1.983c0.112,0.23,0.414,0.375,0.906,0.432c0.487,0.056,1.045,0.086,1.68,0.086v1.725h-6.815h-8.278
		v-1.725c0.691,0,1.235-0.044,1.639-0.13c0.399-0.086,0.719-0.271,0.947-0.56c0.116-0.174,0.172-0.39,0.172-0.647
		c0-0.257,0.06-0.647,0.175-1.164H196.652z M196.652,139.376c1.727,0,2.902-0.46,3.538-1.38c0.288-0.459,0.502-1.048,0.646-1.769
		c0.144-0.718,0.218-1.595,0.218-2.63c0-3.219-0.951-4.83-2.846-4.83h-0.691c-0.115,0.116-0.26,0.172-0.432,0.172s-0.316,0-0.432,0
		L196.652,139.376L196.652,139.376z M213.385,147.656c-1.723-2.242-2.586-5.117-2.586-8.626c0-2.415,0.372-4.513,1.12-6.295
		c0.748-1.781,1.897-3.161,3.45-4.139c1.207-1.035,2.832-1.769,4.874-2.2c2.039-0.432,4.411-0.647,7.114-0.647
		c2.125,0,4.084,0.073,5.867,0.216c1.779,0.145,3.418,0.417,4.914,0.819v6.037h-3.361c-0.691-3.219-3.106-4.83-7.244-4.83
		c-2.994,0-5.033,1.065-6.124,3.192c-0.521,0.92-0.951,1.999-1.296,3.234c-0.344,1.237-0.516,2.775-0.516,4.614
		c0,3.854,0.717,6.728,2.155,8.626L213.385,147.656L213.385,147.656z M221.751,147.656c0.976,1.667,2.586,2.5,4.829,2.5
		c1.264,0,2.529-0.777,3.797-2.328v-0.172h8.539v3.018c-1.15,0-3.997,0.344-8.539,1.035c-1.326,0.288-2.288,0.46-2.891,0.516
		c-0.604,0.06-0.851,0.088-0.734,0.088c-6.379,0-10.836-1.553-13.367-4.657H221.751z M230.377,147.656
		c0.172-0.288,0.271-0.691,0.303-1.209c0.027-0.518,0.041-1.177,0.041-1.984c-0.115-0.804-0.172-1.407-0.172-1.81
		c0-0.402-0.06-0.661-0.172-0.776c-0.115-0.114-0.361-0.244-0.732-0.388c-0.375-0.143-0.938-0.216-1.686-0.216v-2.415h7.507h6.38
		v2.415c-1.438,0-2.326,0.375-2.674,1.121c-0.172,0.116-0.256,0.807-0.256,2.069v3.193H230.377z"/>
	<g id="us-nr_3_">
		<path d="M245,122v36h-63v-36H245 M247,120h-67v40h67V120L247,120z"/>
	</g>
	<g id="us-nr_2_">
		<path d="M196.156,27.939h-4.646l-3.467-10.59l0.495,10.59h-4.211V9.049h4.398l3.654,10.59l-0.497-10.59h4.274V27.939
			L196.156,27.939z M210.152,21.994c0,2.023-0.435,3.633-1.301,4.83c-0.578,0.579-1.229,0.971-1.949,1.177
			c-0.725,0.208-1.623,0.31-2.694,0.31c-1.075,0-2.013-0.103-2.818-0.31c-0.805-0.206-1.415-0.598-1.827-1.177
			c-0.413-0.578-0.765-1.259-1.052-2.043c-0.29-0.784-0.434-1.712-0.434-2.787v-7.68c0-0.95,0.153-1.755,0.463-2.416
			c0.31-0.66,0.712-1.238,1.208-1.734c0.577-0.454,1.228-0.826,1.951-1.115c0.722-0.289,1.557-0.433,2.508-0.433
			c1.939,0,3.416,0.464,4.428,1.394c1.012,0.929,1.518,2.364,1.518,4.304V21.994L210.152,21.994z M205.693,22.365V14.5
			c0-1.65-0.495-2.477-1.486-2.477c-1.156,0-1.735,0.827-1.735,2.477v7.866c0,1.693,0.579,2.539,1.735,2.539
			C205.198,24.904,205.693,24.059,205.693,22.365z M222.973,12.889h-3.531v15.05h-4.459v-15.05h-3.405v-3.84h11.396V12.889
			L222.973,12.889z M243.35,27.939h-4.646c-0.083-0.165-0.135-0.341-0.155-0.527s-0.03-0.381-0.03-0.588
			c-0.082-0.206-0.135-0.495-0.154-0.867c-0.021-0.372-0.031-0.722-0.031-1.053V22.18c-0.33-1.156-0.848-1.734-1.547-1.734h-1.487
			v7.494h-4.459V9.049h6.379c1.981,0,3.384,0.414,4.212,1.239c0.453,0.455,0.773,1.002,0.959,1.641
			c0.186,0.641,0.278,1.435,0.278,2.385c0,2.188-0.743,3.613-2.229,4.273c1.362,0.372,2.045,1.198,2.045,2.477
			c0.082,0.785,0.144,1.683,0.185,2.694c0.041,1.012,0.144,2.096,0.31,3.251c0.248,0.332,0.373,0.538,0.373,0.62V27.939z
			 M238.518,14.809c0-0.578-0.093-1.022-0.277-1.332c-0.188-0.31-0.383-0.505-0.588-0.588c-0.209-0.164-0.486-0.289-0.838-0.372
			c-0.352-0.082-0.855-0.124-1.517-0.124v4.645h1.487C237.939,17.039,238.518,16.296,238.518,14.809z M257.529,27.939h-4.457
			l-0.62-3.654h-3.531l-0.495,3.654h-4.459l4.025-18.89h5.265L257.529,27.939z M252.08,20.878l-1.301-8.484l-1.237,8.484H252.08z
			 M269.607,12.889h-3.592v15.05h-4.272v-15.05h-3.531v-3.84h11.396V12.889L269.607,12.889z M281.623,27.939h-10.282V9.049h10.095
			v3.84h-5.759v3.344h5.574v3.84h-5.574v4.026h5.946V27.939z M295.68,22.984c0,1.899-0.64,3.242-1.92,4.025
			c-0.412,0.332-0.98,0.569-1.701,0.713c-0.724,0.145-1.498,0.217-2.324,0.217h-5.944V9.049h4.831c1.197,0,2.199,0.083,3.004,0.248
			c0.805,0.166,1.436,0.352,1.889,0.558c0.784,0.455,1.342,1.053,1.674,1.796c0.33,0.743,0.494,1.693,0.494,2.849v8.484H295.68z
			 M291.221,21.064v-6.069c0-1.073-0.227-1.775-0.682-2.106c-0.207-0.164-0.484-0.268-0.835-0.309
			c-0.353-0.041-0.858-0.103-1.517-0.186v12.077c0.164,0.042,0.318,0.062,0.463,0.062s0.279,0,0.402,0
			c0.949,0,1.508-0.206,1.672-0.619c0.164-0.206,0.289-0.567,0.373-1.083C291.18,22.313,291.221,21.725,291.221,21.064z"/>
		<path d="M298,2.031L298.031,38h-116L182,2L298,2.031 M300,0H180v40h120V0L300,0z"/>
	</g>
	<g>
		<g>
			<path fill="#FFFFFF" d="M32.189,994.141H14.816v-0.919c1.92,0,2.88-0.348,2.88-1.042V974.53c0-0.694-0.96-1.042-2.88-1.042V972.6
				h17.098l0.092,6.036H30.78c-0.286-2.308-0.796-3.748-1.532-4.319c-0.654-0.511-2.166-0.767-4.535-0.767h-3.861v8.979h2.022
				c1.552,0,2.543-0.266,2.972-0.797c0.368-0.471,0.541-1.501,0.521-3.096h1.134v8.888h-1.134c-0.082-1.777-0.235-2.829-0.459-3.156
				c-0.368-0.552-1.379-0.827-3.034-0.827h-2.022v9.56h5.086c1.981,0,3.35-0.5,4.106-1.501c0.552-0.734,0.96-2.176,1.226-4.319
				h0.919V994.141z"/>
		</g>
		<path fill="#FFFFFF" d="M23.697,1007.789C10.63,1007.789,0,997.158,0,984.092c0-13.065,10.63-23.697,23.697-23.697
			c13.067,0,23.697,10.632,23.697,23.697C47.394,997.158,36.764,1007.789,23.697,1007.789z M23.697,962.395
			C11.733,962.395,2,972.128,2,984.092s9.733,21.697,21.697,21.697c11.964,0,21.697-9.733,21.697-21.697
			S35.661,962.395,23.697,962.395z"/>
	</g>
	<g>
		<g>
			<path fill="#FFFFFF" d="M21.886,1030.957v-4.616h1.98v0.699h-1.285v1.259h0.939v0.7h-0.939v1.259h1.285v0.699H21.886z"/>
			<path fill="#FFFFFF" d="M25.126,1026.341l0.924,3.104v-3.104h0.696v4.616h-0.748l-0.957-2.956v2.956h-0.696v-4.616H25.126z"/>
		</g>
		<g>
			<path fill="#FFFFFF" d="M5.683,1040.361l-0.389,2.437H3.628l1.803-10.603h2.2l1.777,10.603H7.727l-0.375-2.437H5.683z
				 M6.522,1034.624l-0.592,4.18h1.185L6.522,1034.624z"/>
			<path fill="#FFFFFF" d="M10.957,1033.803H9.256v-1.606h4.993v1.606h-1.693v8.995h-1.599V1033.803z"/>
			<path fill="#FFFFFF" d="M17.05,1033.803h-1.701v-1.606h4.993v1.606h-1.693v8.995H17.05V1033.803z"/>
			<path fill="#FFFFFF" d="M21.627,1042.798v-10.61h4.553v1.607h-2.954v2.895h2.158v1.606h-2.158v2.896h2.954v1.606H21.627
				L21.627,1042.798z"/>
			<path fill="#FFFFFF" d="M29.076,1032.188l2.123,7.132v-7.132h1.599v10.61H31.08l-2.2-6.795v6.795h-1.6v-10.61H29.076z"/>
			<path fill="#FFFFFF" d="M35.786,1033.803h-1.702v-1.606h4.993v1.606h-1.692v8.995h-1.599V1033.803z"/>
			<path fill="#FFFFFF" d="M40.363,1042.798v-10.61h4.553v1.607h-2.953v2.895h2.158v1.606h-2.158v2.896h2.953v1.606H40.363
				L40.363,1042.798z"/>
		</g>
		<g>
			<path fill="#FFFFFF" d="M24.159,1048.179c0,0.304-0.107,0.564-0.321,0.78s-0.471,0.324-0.773,0.324h-1.093v-4.617h1.093
				c0.304,0,0.563,0.108,0.775,0.324s0.319,0.475,0.319,0.776V1048.179z M22.667,1048.595h0.419c0.11,0,0.204-0.04,0.28-0.12
				c0.077-0.078,0.114-0.173,0.114-0.28v-2.416c0-0.11-0.039-0.204-0.116-0.283c-0.077-0.078-0.169-0.117-0.278-0.117h-0.419
				V1048.595z"/>
			<path fill="#FFFFFF" d="M24.77,1049.283v-4.617h1.981v0.7h-1.285v1.259h0.939v0.699h-0.939v1.26h1.285v0.699H24.77z"/>
		</g>
		<g>
			<path fill="#FFFFFF" d="M5.32,1060.622c-0.614,0-1.135-0.215-1.565-0.646c-0.43-0.429-0.644-0.947-0.644-1.558v-5.036
				c0-0.614,0.216-1.135,0.648-1.563c0.432-0.431,0.952-0.645,1.561-0.645c0.614,0,1.134,0.216,1.561,0.647
				c0.427,0.432,0.641,0.951,0.641,1.561v1.053H6.078v-1.082c0-0.221-0.079-0.41-0.236-0.566c-0.157-0.157-0.346-0.236-0.566-0.236
				c-0.221,0-0.409,0.079-0.563,0.236c-0.155,0.156-0.232,0.347-0.232,0.566v5.052c0,0.221,0.078,0.409,0.232,0.562
				c0.154,0.154,0.342,0.232,0.563,0.232c0.221,0,0.41-0.078,0.566-0.232c0.157-0.154,0.236-0.343,0.236-0.562v-1.274h1.443v1.289
				c0,0.614-0.216,1.135-0.648,1.562S5.923,1060.622,5.32,1060.622z"/>
			<path fill="#FFFFFF" d="M11.106,1060.504H7.315v-9.226h1.391v7.841h2.4V1060.504z"/>
			<path fill="#FFFFFF" d="M12.503,1058.384l-0.338,2.12h-1.449l1.568-9.226h1.915l1.546,9.226h-1.463l-0.326-2.12H12.503z
				 M13.234,1053.391l-0.515,3.639h1.031L13.234,1053.391z"/>
			<path fill="#FFFFFF" d="M19.751,1058.207c0.01,0.643-0.157,1.192-0.5,1.649c-0.226,0.309-0.545,0.527-0.958,0.654
				c-0.221,0.068-0.479,0.104-0.773,0.104c-0.544,0-0.996-0.135-1.354-0.404c-0.3-0.221-0.536-0.521-0.711-0.901
				c-0.174-0.381-0.276-0.815-0.305-1.308l1.325-0.097c0.059,0.539,0.201,0.929,0.427,1.17c0.167,0.183,0.358,0.269,0.574,0.26
				c0.305-0.01,0.547-0.161,0.729-0.45c0.093-0.143,0.139-0.347,0.139-0.61c0-0.383-0.174-0.765-0.522-1.145
				c-0.275-0.26-0.688-0.649-1.237-1.171c-0.461-0.447-0.788-0.848-0.979-1.202c-0.207-0.396-0.309-0.829-0.309-1.296
				c0-0.841,0.282-1.477,0.846-1.909c0.349-0.261,0.781-0.391,1.296-0.391c0.496,0,0.92,0.109,1.274,0.331
				c0.275,0.173,0.497,0.412,0.667,0.723c0.169,0.31,0.271,0.665,0.305,1.066l-1.333,0.243c-0.039-0.377-0.147-0.672-0.324-0.883
				c-0.127-0.152-0.312-0.229-0.552-0.229c-0.255,0-0.449,0.112-0.582,0.339c-0.108,0.182-0.162,0.407-0.162,0.678
				c0,0.422,0.182,0.852,0.545,1.288c0.137,0.167,0.344,0.363,0.619,0.589c0.324,0.271,0.537,0.459,0.641,0.566
				c0.343,0.344,0.608,0.683,0.795,1.017c0.088,0.157,0.159,0.303,0.213,0.436C19.677,1057.652,19.746,1057.947,19.751,1058.207z"/>
			<path fill="#FFFFFF" d="M23.962,1058.207c0.009,0.643-0.158,1.192-0.501,1.649c-0.226,0.309-0.545,0.527-0.957,0.654
				c-0.221,0.068-0.479,0.104-0.773,0.104c-0.545,0-0.997-0.135-1.355-0.404c-0.299-0.221-0.536-0.521-0.71-0.901
				s-0.276-0.815-0.305-1.308l1.325-0.097c0.059,0.539,0.201,0.929,0.427,1.17c0.167,0.183,0.358,0.269,0.574,0.26
				c0.305-0.01,0.547-0.161,0.729-0.45c0.093-0.143,0.14-0.347,0.14-0.61c0-0.383-0.174-0.765-0.522-1.145
				c-0.275-0.26-0.688-0.649-1.237-1.171c-0.462-0.447-0.788-0.848-0.979-1.202c-0.206-0.396-0.309-0.829-0.309-1.296
				c0-0.841,0.282-1.477,0.847-1.909c0.349-0.261,0.78-0.391,1.296-0.391c0.496,0,0.92,0.109,1.273,0.331
				c0.275,0.173,0.497,0.412,0.667,0.723c0.169,0.31,0.271,0.665,0.305,1.066l-1.333,0.243c-0.039-0.377-0.147-0.672-0.324-0.883
				c-0.127-0.152-0.312-0.229-0.552-0.229c-0.255,0-0.449,0.112-0.582,0.339c-0.108,0.182-0.162,0.407-0.162,0.678
				c0,0.422,0.182,0.852,0.545,1.288c0.137,0.167,0.344,0.363,0.619,0.589c0.324,0.271,0.538,0.459,0.641,0.566
				c0.343,0.344,0.609,0.683,0.795,1.017c0.088,0.157,0.159,0.303,0.213,0.436C23.888,1057.652,23.957,1057.947,23.962,1058.207z"/>
			<path fill="#FFFFFF" d="M23.771,1060.504v-9.232h3.961v1.397h-2.57v2.521h1.878v1.397h-1.878v2.519h2.57v1.398H23.771
				L23.771,1060.504z"/>
			<path fill="#FFFFFF" d="M28.733,1060.504h-1.392v-9.232h1.997l1.297,6.633l1.245-6.633h1.919v9.232h-1.392v-5.803l-1.207,5.803
				h-1.119l-1.348-5.787V1060.504z"/>
			<path fill="#FFFFFF" d="M33.696,1060.504v-9.232h3.961v1.397h-2.57v2.521h1.878v1.397h-1.878v2.519h2.57v1.398H33.696
				L33.696,1060.504z"/>
			<path fill="#FFFFFF" d="M38.829,1051.271l1.847,6.204v-6.204h1.392v9.232h-1.495l-1.914-5.912v5.912h-1.392v-9.232H38.829z"/>
			<path fill="#FFFFFF" d="M43.318,1052.677h-1.479v-1.397h4.344v1.397H44.71v7.827h-1.392V1052.677z"/>
		</g>
		<path fill="#FFFFFF" d="M50,1063.754c0,3.449-2.796,6.246-6.245,6.246H6.245c-3.449,0-6.245-2.797-6.245-6.246v-37.508
			c0-3.449,2.796-6.246,6.245-6.246h37.511c3.449,0,6.245,2.797,6.245,6.246L50,1063.754L50,1063.754z M49,1026.264
			c0-2.906-2.356-5.264-5.262-5.264H6.262c-2.906,0-5.262,2.356-5.262,5.264v37.474c0,2.907,2.356,5.264,5.262,5.264h37.476
			c2.906,0,5.262-2.355,5.262-5.264V1026.264z"/>
	</g>
	<g>
		<g>
			<path d="M201.886,1030.957v-4.616h1.98v0.699h-1.285v1.259h0.939v0.7h-0.939v1.259h1.285v0.699H201.886z"/>
			<path d="M205.126,1026.341l0.924,3.104v-3.104h0.696v4.616h-0.748l-0.957-2.956v2.956h-0.696v-4.616H205.126z"/>
		</g>
		<g>
			<path d="M185.683,1040.361l-0.389,2.437h-1.666l1.803-10.603h2.2l1.777,10.603h-1.682l-0.375-2.437H185.683z M186.522,1034.624
				l-0.592,4.18h1.185L186.522,1034.624z"/>
			<path d="M190.957,1033.803h-1.701v-1.606h4.993v1.606h-1.693v8.995h-1.599V1033.803z"/>
			<path d="M197.05,1033.803h-1.701v-1.606h4.993v1.606h-1.693v8.995h-1.599V1033.803z"/>
			<path d="M201.627,1042.798v-10.61h4.553v1.607h-2.954v2.895h2.158v1.606h-2.158v2.896h2.954v1.606H201.627L201.627,1042.798z"/>
			<path d="M209.076,1032.188l2.123,7.132v-7.132h1.599v10.61h-1.718l-2.2-6.795v6.795h-1.601v-10.61H209.076z"/>
			<path d="M215.786,1033.803h-1.702v-1.606h4.993v1.606h-1.692v8.995h-1.599V1033.803z"/>
			<path d="M220.363,1042.798v-10.61h4.553v1.607h-2.953v2.895h2.158v1.606h-2.158v2.896h2.953v1.606H220.363L220.363,1042.798z"/>
		</g>
		<g>
			<path d="M204.159,1048.179c0,0.304-0.107,0.564-0.321,0.78s-0.471,0.324-0.773,0.324h-1.093v-4.617h1.093
				c0.304,0,0.563,0.108,0.775,0.324s0.319,0.475,0.319,0.776V1048.179z M202.667,1048.595h0.419c0.11,0,0.204-0.04,0.28-0.12
				c0.077-0.078,0.114-0.173,0.114-0.28v-2.416c0-0.11-0.039-0.204-0.116-0.283c-0.077-0.078-0.169-0.117-0.278-0.117h-0.419
				V1048.595z"/>
			<path d="M204.77,1049.283v-4.617h1.981v0.7h-1.285v1.259h0.938v0.699h-0.938v1.26h1.285v0.699H204.77z"/>
		</g>
		<g>
			<path d="M185.32,1060.622c-0.614,0-1.135-0.215-1.565-0.646c-0.43-0.429-0.644-0.947-0.644-1.558v-5.036
				c0-0.614,0.216-1.135,0.648-1.563c0.432-0.431,0.952-0.645,1.561-0.645c0.614,0,1.134,0.216,1.561,0.647
				c0.427,0.432,0.641,0.951,0.641,1.561v1.053h-1.443v-1.082c0-0.221-0.079-0.41-0.236-0.566c-0.157-0.157-0.346-0.236-0.566-0.236
				c-0.221,0-0.409,0.079-0.563,0.236c-0.155,0.156-0.232,0.347-0.232,0.566v5.052c0,0.221,0.078,0.409,0.232,0.562
				c0.154,0.154,0.342,0.232,0.563,0.232c0.221,0,0.41-0.078,0.566-0.232c0.157-0.154,0.236-0.343,0.236-0.562v-1.274h1.443v1.289
				c0,0.614-0.216,1.135-0.648,1.562C186.441,1060.408,185.923,1060.622,185.32,1060.622z"/>
			<path d="M191.106,1060.504h-3.792v-9.226h1.391v7.841h2.4L191.106,1060.504L191.106,1060.504z"/>
			<path d="M192.503,1058.384l-0.338,2.12h-1.449l1.568-9.226h1.915l1.546,9.226h-1.463l-0.326-2.12H192.503z M193.234,1053.391
				l-0.515,3.639h1.031L193.234,1053.391z"/>
			<path d="M199.751,1058.207c0.01,0.643-0.157,1.192-0.5,1.649c-0.226,0.309-0.545,0.527-0.958,0.654
				c-0.221,0.068-0.479,0.104-0.773,0.104c-0.544,0-0.996-0.135-1.354-0.404c-0.3-0.221-0.536-0.521-0.711-0.901
				c-0.174-0.381-0.276-0.815-0.305-1.308l1.325-0.097c0.059,0.539,0.201,0.929,0.427,1.17c0.167,0.183,0.358,0.269,0.574,0.26
				c0.305-0.01,0.547-0.161,0.729-0.45c0.093-0.143,0.139-0.347,0.139-0.61c0-0.383-0.174-0.765-0.522-1.145
				c-0.275-0.26-0.688-0.649-1.237-1.171c-0.461-0.447-0.788-0.848-0.979-1.202c-0.207-0.396-0.309-0.829-0.309-1.296
				c0-0.841,0.282-1.477,0.846-1.909c0.349-0.261,0.781-0.391,1.296-0.391c0.496,0,0.92,0.109,1.274,0.331
				c0.275,0.173,0.497,0.412,0.667,0.723c0.169,0.31,0.271,0.665,0.305,1.066l-1.333,0.243c-0.039-0.377-0.147-0.672-0.324-0.883
				c-0.127-0.152-0.312-0.229-0.552-0.229c-0.255,0-0.449,0.112-0.582,0.339c-0.108,0.182-0.162,0.407-0.162,0.678
				c0,0.422,0.182,0.852,0.545,1.288c0.137,0.167,0.344,0.363,0.619,0.589c0.324,0.271,0.537,0.459,0.641,0.566
				c0.343,0.344,0.608,0.683,0.795,1.017c0.088,0.157,0.159,0.303,0.213,0.436C199.677,1057.652,199.746,1057.947,199.751,1058.207z
				"/>
			<path d="M203.962,1058.207c0.009,0.643-0.158,1.192-0.501,1.649c-0.226,0.309-0.545,0.527-0.957,0.654
				c-0.221,0.068-0.479,0.104-0.773,0.104c-0.545,0-0.997-0.135-1.355-0.404c-0.299-0.221-0.536-0.521-0.71-0.901
				s-0.276-0.815-0.305-1.308l1.325-0.097c0.059,0.539,0.201,0.929,0.427,1.17c0.167,0.183,0.358,0.269,0.574,0.26
				c0.305-0.01,0.547-0.161,0.729-0.45c0.093-0.143,0.14-0.347,0.14-0.61c0-0.383-0.174-0.765-0.522-1.145
				c-0.275-0.26-0.688-0.649-1.237-1.171c-0.462-0.447-0.788-0.848-0.979-1.202c-0.206-0.396-0.309-0.829-0.309-1.296
				c0-0.841,0.282-1.477,0.847-1.909c0.349-0.261,0.78-0.391,1.296-0.391c0.496,0,0.92,0.109,1.273,0.331
				c0.275,0.173,0.497,0.412,0.667,0.723c0.169,0.31,0.271,0.665,0.305,1.066l-1.333,0.243c-0.039-0.377-0.147-0.672-0.324-0.883
				c-0.127-0.152-0.312-0.229-0.552-0.229c-0.255,0-0.449,0.112-0.582,0.339c-0.108,0.182-0.162,0.407-0.162,0.678
				c0,0.422,0.182,0.852,0.545,1.288c0.137,0.167,0.344,0.363,0.619,0.589c0.324,0.271,0.538,0.459,0.641,0.566
				c0.343,0.344,0.609,0.683,0.795,1.017c0.088,0.157,0.159,0.303,0.213,0.436C203.888,1057.652,203.957,1057.947,203.962,1058.207z
				"/>
			<path d="M203.771,1060.504v-9.232h3.961v1.397h-2.57v2.521h1.878v1.397h-1.878v2.519h2.57v1.398H203.771L203.771,1060.504z"/>
			<path d="M208.732,1060.504h-1.392v-9.232h1.997l1.297,6.633l1.245-6.633h1.919v9.232h-1.392v-5.803l-1.207,5.803h-1.119
				l-1.349-5.787V1060.504L208.732,1060.504z"/>
			<path d="M213.695,1060.504v-9.232h3.962v1.397h-2.57v2.521h1.878v1.397h-1.878v2.519h2.57v1.398H213.695L213.695,1060.504z"/>
			<path d="M218.829,1051.271l1.847,6.204v-6.204h1.393v9.232h-1.495l-1.914-5.912v5.912h-1.392v-9.232H218.829z"/>
			<path d="M223.318,1052.677h-1.479v-1.397h4.345v1.397h-1.474v7.827h-1.392V1052.677L223.318,1052.677z"/>
		</g>
		<path d="M230,1063.754c0,3.449-2.796,6.246-6.245,6.246h-37.511c-3.449,0-6.245-2.797-6.245-6.246v-37.508
			c0-3.449,2.796-6.246,6.245-6.246h37.511c3.449,0,6.245,2.797,6.245,6.246V1063.754z M229,1026.264
			c0-2.906-2.355-5.264-5.262-5.264h-37.476c-2.906,0-5.262,2.356-5.262,5.264v37.474c0,2.907,2.356,5.264,5.262,5.264h37.476
			c2.906,0,5.262-2.355,5.262-5.264V1026.264z"/>
	</g>
	<g>
		<g>
			<path d="M212.189,994.141h-17.375v-0.919c1.92,0,2.88-0.348,2.88-1.042V974.53c0-0.694-0.96-1.042-2.88-1.042V972.6h17.098
				l0.092,6.036h-1.226c-0.286-2.308-0.797-3.748-1.532-4.319c-0.654-0.511-2.166-0.767-4.535-0.767h-3.861v8.979h2.022
				c1.552,0,2.543-0.266,2.973-0.797c0.367-0.471,0.54-1.501,0.521-3.096h1.134v8.888h-1.134c-0.082-1.777-0.235-2.829-0.459-3.156
				c-0.368-0.552-1.38-0.827-3.034-0.827h-2.022v9.56h5.086c1.98,0,3.35-0.5,4.105-1.501c0.553-0.734,0.96-2.176,1.227-4.319h0.918
				v6.861H212.189z"/>
		</g>
		<path d="M203.697,1007.789c-13.067,0-23.697-10.631-23.697-23.697c0-13.065,10.63-23.697,23.697-23.697
			s23.698,10.632,23.698,23.697C227.395,997.158,216.764,1007.789,203.697,1007.789z M203.697,962.395
			c-11.964,0-21.697,9.733-21.697,21.697s9.733,21.697,21.697,21.697c11.964,0,21.698-9.733,21.698-21.697
			S215.661,962.395,203.697,962.395z"/>
	</g>
</g>
<g id="Layer_2">
</g>
</svg>
